<svg xmlns="http://www.w3.org/2000/svg" width="55" height="56" fill="none"><path fill="#EAEDF0" d="M10.742 33.453c-.143-.143-.143-.286 0-.43.287-.286.645-.394 1.074-.322.43.072.68.143.752.215.502.215 1.057.698 1.665 1.45.609.752 1.092 1.271 1.45 1.558 1.72 1.432 3.474 1.54 5.264.322a3.22 3.22 0 0 1 .698-1.29c.323-.357.627-.608.913-.751.287-.143.788-.358 1.504-.645-2.363-.214-4.279-.626-5.747-1.235-1.468-.609-2.632-1.379-3.49-2.31-1.147-1.288-1.845-2.971-2.096-5.048-.25-2.077-.09-3.975.484-5.694a9.458 9.458 0 0 1 1.826-2.9c-.573-1.79-.466-3.831.322-6.123 2.292.143 4.369.93 6.23 2.363 3.581-.93 7.305-.967 11.172-.107.502-.358 1.272-.806 2.31-1.343 1.038-.537 2.345-.841 3.92-.913.287.788.484 1.719.592 2.793.107 1.074.053 2.077-.161 3.008 1.647 1.718 2.506 4.01 2.578 6.875 0 2.291-.394 4.19-1.182 5.693-.788 1.504-2.184 2.757-4.19 3.76-1.36.644-3.15 1.038-5.37 1.181 1.002.502 1.736 1.02 2.202 1.558.465.537.77 1.378.913 2.524v3.384l.107 3.277c.215.358.466.662.752.913.287.25.537.43.752.537.215.107.287.268.215.483-.072.215-.358.323-.86.323-1.217 0-2.184-.43-2.9-1.29-.215-.358-.322-.787-.322-1.289v-5.156c0-.573-.143-.985-.43-1.235-.286-.251-.573-.412-.859-.484v6.768c0 1.217.143 2.005.43 2.363.286.358.465.716.537 1.074.072.072.018.126-.161.161-.18.036-.484-.017-.913-.16-.931-.215-1.576-.699-1.934-1.45a5.55 5.55 0 0 1-.537-2.418v-6.66h-1.397v6.66c0 .86-.179 1.683-.537 2.471-.501 1.003-1.432 1.54-2.793 1.611-.214-.071-.322-.143-.322-.214.072-.072.287-.43.645-1.075.071-.143.16-.43.268-.859.108-.43.161-.931.161-1.504v-6.768c-.286.072-.555.233-.805.484-.251.25-.376.662-.376 1.235v5.157c0 .5-.108.93-.323 1.288-.644.86-1.611 1.29-2.9 1.29-.501 0-.788-.108-.86-.323-.071-.143-.053-.268.054-.376.108-.107.269-.232.484-.376.215-.143.358-.25.43-.322.286-.215.5-.501.644-.86.215-.286.269-1.038.161-2.255-.107-1.218-.125-2.005-.054-2.363-1.862.644-3.76.322-5.693-.967-.573-.573-1.146-1.397-1.719-2.47-.43-.789-1.289-1.72-2.578-2.794Z"/></svg>