<svg xmlns="http://www.w3.org/2000/svg" width="40" height="40" fill="none"><path fill="url(#a)" d="M20 2.5c-9.664 0-17.5 8.04-17.5 17.945 0 7.93 5.016 14.649 11.969 17.024.097.02.197.031.297.031.648 0 .898-.477.898-.89 0-.43-.016-1.555-.023-3.055a8 8 0 0 1-1.766.21c-3.367 0-4.133-2.617-4.133-2.617-.797-2.07-1.945-2.625-1.945-2.625-1.524-1.07-.008-1.101.11-1.101h.007c1.758.156 2.68 1.86 2.68 1.86.875 1.53 2.047 1.96 3.094 1.96a4.923 4.923 0 0 0 2-.469c.156-1.156.609-1.945 1.109-2.398-3.883-.453-7.969-1.992-7.969-8.867 0-1.961.68-3.563 1.797-4.813-.18-.453-.781-2.28.172-4.75.128-.03.26-.043.39-.039.633 0 2.063.242 4.422 1.883a16.266 16.266 0 0 1 8.766 0c2.36-1.64 3.79-1.883 4.422-1.883.131-.004.263.009.39.04.954 2.468.352 4.296.172 4.75 1.118 1.257 1.797 2.859 1.797 4.812 0 6.89-4.093 8.406-7.992 8.851.625.555 1.188 1.649 1.188 3.32 0 2.4-.024 4.337-.024 4.923 0 .421.242.898.89.898.106 0 .21-.01.313-.031C32.492 35.094 37.5 28.367 37.5 20.445 37.5 10.54 29.664 2.5 20 2.5Z"/><defs><linearGradient id="a" x1="2.5" x2="21" y1="20" y2="20" gradientUnits="userSpaceOnUse"><stop stop-color="#009DF8"/><stop offset="1" stop-color="#708AF4"/></linearGradient></defs></svg>