<svg width="36" height="36" viewBox="0 0 36 36" fill="none" xmlns="http://www.w3.org/2000/svg">
<path d="M7.03125 21.8671C6.9375 21.7734 6.9375 21.6796 7.03125 21.5859C7.21871 21.3984 7.45312 21.3281 7.73434 21.3749C8.01559 21.4218 8.17965 21.4687 8.22653 21.5156C8.55465 21.6562 8.91795 21.9726 9.31635 22.4648C9.71475 22.957 10.0312 23.2968 10.2656 23.4843C11.3906 24.4218 12.539 24.4921 13.7109 23.6952C13.8046 23.3671 13.957 23.0859 14.1679 22.8515C14.3788 22.6171 14.578 22.4531 14.7655 22.3593C14.9531 22.2655 15.2812 22.1249 15.75 21.9374C14.203 21.7968 12.9492 21.5272 11.9882 21.1288C11.0273 20.7304 10.2656 20.2265 9.70305 19.6171C8.95305 18.7733 8.496 17.6718 8.33194 16.3124C8.16784 14.953 8.27333 13.7108 8.64836 12.5858C8.92961 11.8827 9.32805 11.2499 9.84364 10.6874C9.46864 9.51554 9.53895 8.1796 10.0546 6.6796C11.5546 6.77335 12.9139 7.28898 14.1327 8.22647C16.4764 7.6171 18.9139 7.59366 21.4452 8.15616C21.7733 7.92179 22.2772 7.62884 22.9569 7.27724C23.6365 6.92568 24.492 6.72644 25.5233 6.67957C25.7108 7.19519 25.8397 7.80456 25.91 8.50769C25.9803 9.21081 25.9452 9.86706 25.8046 10.4764C26.8827 11.6014 27.4451 13.1014 27.492 14.9764C27.492 16.4764 27.2342 17.7186 26.7186 18.703C26.203 19.6874 25.2889 20.5077 23.9764 21.1639C23.0858 21.5858 21.9139 21.8436 20.4608 21.9373C21.1171 22.2655 21.5976 22.6053 21.9022 22.9569C22.207 23.3084 22.4062 23.8592 22.4999 24.6092V26.8241L22.5702 28.9686C22.7108 29.203 22.8749 29.4022 23.0624 29.5663C23.2499 29.7304 23.414 29.8476 23.5546 29.9179C23.6952 29.9882 23.7421 30.0937 23.6952 30.2343C23.6483 30.3749 23.4608 30.4452 23.1328 30.4452C22.3358 30.4452 21.7031 30.164 21.2343 29.6015C21.0937 29.3671 21.0234 29.0859 21.0234 28.7577V25.3827C21.0234 25.0077 20.9296 24.7382 20.7421 24.5741C20.5546 24.41 20.3671 24.3045 20.1796 24.2577V28.6874C20.1796 29.4842 20.2734 29.9999 20.4609 30.2342C20.6484 30.4686 20.7656 30.703 20.8125 30.9374C20.8594 30.9842 20.8242 31.0194 20.707 31.0428C20.5898 31.0662 20.3906 31.0311 20.1093 30.9374C19.5 30.7967 19.0781 30.4803 18.8437 29.9881C18.6093 29.4959 18.4921 28.9686 18.4921 28.4061V24.0468H17.5781V28.4062C17.5781 28.9687 17.4609 29.5078 17.2265 30.0234C16.8984 30.6797 16.289 31.0312 15.3984 31.0781C15.2578 31.0312 15.1875 30.9843 15.1875 30.9375C15.2343 30.8906 15.375 30.6562 15.6093 30.2343C15.6562 30.1406 15.7148 29.9531 15.7851 29.6718C15.8555 29.3906 15.8906 29.0625 15.8906 28.6875V24.2577C15.7031 24.3046 15.5273 24.4101 15.3633 24.5742C15.1992 24.7383 15.1171 25.0078 15.1171 25.3828V28.7578C15.1171 29.0859 15.0468 29.3672 14.9062 29.6015C14.4843 30.164 13.8515 30.4453 13.0078 30.4453C12.6797 30.4453 12.4922 30.375 12.4453 30.2344C12.3984 30.1406 12.4101 30.0586 12.4805 29.9883C12.5508 29.9179 12.6563 29.8359 12.7969 29.7422C12.9375 29.6484 13.0313 29.5781 13.0782 29.5312C13.2657 29.3906 13.4062 29.2031 13.5 28.9687C13.6407 28.7812 13.6758 28.289 13.6055 27.4922C13.5352 26.6953 13.5234 26.1797 13.5703 25.9453C12.3515 26.3672 11.1094 26.1562 9.84371 25.3125C9.46871 24.9375 9.09371 24.3984 8.71871 23.6953C8.43746 23.1796 7.87496 22.5702 7.03125 21.8671Z" fill="#009DF8"/>
</svg>
