<svg xmlns="http://www.w3.org/2000/svg" width="40" height="40" fill="none"><path fill="url(#a)" fill-rule="evenodd" d="M32.4 7.586A17.354 17.354 0 0 0 20.074 2.5C10.47 2.5 2.65 10.28 2.646 19.844a17.236 17.236 0 0 0 2.327 8.672L2.5 37.5l9.238-2.412a17.47 17.47 0 0 0 8.328 2.11h.007c9.604 0 17.422-7.78 17.427-17.344a17.202 17.202 0 0 0-5.1-12.268ZM20.074 34.27h-.006c-2.593.001-5.138-.693-7.372-2.01l-.529-.312-5.482 1.432 1.464-5.32-.345-.547a14.333 14.333 0 0 1-2.215-7.67c0-7.947 6.501-14.413 14.49-14.413a14.453 14.453 0 0 1 14.48 14.425c-.003 7.948-6.501 14.415-14.485 14.415Zm7.945-10.796c-.435-.217-2.578-1.265-2.975-1.41-.397-.145-.69-.217-.98.217-.29.435-1.125 1.406-1.379 1.7-.254.292-.507.324-.943.107-.435-.217-1.839-.674-3.502-2.15-1.294-1.15-2.168-2.569-2.422-3.002-.254-.434-.027-.669.19-.884.197-.195.436-.507.654-.76.218-.253.29-.434.435-.723.145-.29.073-.543-.036-.759-.108-.216-.98-2.35-1.342-3.218-.354-.845-.713-.73-.98-.744a17.682 17.682 0 0 0-.835-.015 1.604 1.604 0 0 0-1.16.542c-.4.434-1.525 1.484-1.525 3.616 0 2.13 1.563 4.193 1.778 4.482.216.29 3.07 4.667 7.438 6.544.811.348 1.64.652 2.483.913 1.043.33 1.992.283 2.742.172.837-.125 2.579-1.049 2.94-2.061.362-1.013.363-1.88.254-2.06-.109-.181-.4-.29-.835-.507Z" clip-rule="evenodd"/><defs><linearGradient id="a" x1="3" x2="22" y1="20" y2="20" gradientUnits="userSpaceOnUse"><stop stop-color="#009DF8"/><stop offset="1" stop-color="#708AF4"/></linearGradient></defs></svg>