<svg xmlns="http://www.w3.org/2000/svg" width="45" height="40" fill="none"><path fill="url(#a)" d="M37.266 6.25H7.734c-1.305.001-2.556.463-3.478 1.283-.923.82-1.442 1.932-1.444 3.092v18.75c.002 1.16.52 2.272 1.444 3.092.922.82 2.173 1.282 3.478 1.283h29.532c1.305-.001 2.556-.463 3.478-1.283.923-.82 1.442-1.932 1.444-3.092v-18.75c-.002-1.16-.52-2.272-1.444-3.092-.922-.82-2.173-1.282-3.478-1.283Zm-1.247 7.237-12.656 8.75c-.247.17-.55.263-.863.263-.313 0-.616-.093-.863-.263L8.98 13.487a1.312 1.312 0 0 1-.368-.368 1.16 1.16 0 0 1-.179-.466 1.116 1.116 0 0 1 .037-.49c.049-.16.133-.31.247-.441.114-.13.257-.24.42-.322a1.577 1.577 0 0 1 1.078-.113c.178.046.345.123.49.226L22.5 19.666l11.793-8.153a1.538 1.538 0 0 1 1.032-.241c.366.043.699.212.926.471.227.26.33.588.286.914-.043.326-.23.624-.518.83Z"/><defs><linearGradient id="a" x1="2" x2="24.5" y1="20" y2="20" gradientUnits="userSpaceOnUse"><stop stop-color="#009DF8"/><stop offset="1" stop-color="#708AF4"/></linearGradient></defs></svg>