<svg xmlns="http://www.w3.org/2000/svg" width="40" height="40" fill="none"><path fill="url(#a)" d="M34.7 2.5H5.49C3.896 2.5 2.5 3.648 2.5 5.226V34.5c0 1.586 1.395 2.999 2.99 2.999h29.202c1.605 0 2.808-1.423 2.808-3V5.227c.01-1.578-1.203-2.726-2.8-2.726ZM13.35 31.674H8.334v-15.59h5.014v15.59Zm-2.334-17.96h-.036c-1.605 0-2.644-1.194-2.644-2.69 0-1.522 1.066-2.689 2.707-2.689 1.64 0 2.645 1.158 2.68 2.69 0 1.495-1.04 2.69-2.707 2.69Zm20.658 17.96H26.66V23.15c0-2.042-.73-3.438-2.544-3.438-1.386 0-2.206.938-2.57 1.851-.137.328-.174.775-.174 1.232v8.88h-5.014v-15.59h5.014v2.169c.73-1.04 1.87-2.535 4.522-2.535 3.291 0 5.781 2.17 5.781 6.847v9.108Z"/><defs><linearGradient id="a" x1="3" x2="27.5" y1="20" y2="20" gradientUnits="userSpaceOnUse"><stop stop-color="#009DF8"/><stop offset=".984" stop-color="#708AF4"/></linearGradient></defs></svg>