<svg xmlns="http://www.w3.org/2000/svg" width="36" height="34" fill="none"><path fill="#009DF8" d="M36 17.004c0-2.384-2.986-4.643-7.565-6.044 1.056-4.664.587-8.375-1.483-9.564-.477-.278-1.034-.41-1.643-.41V2.62c.337 0 .609.066.836.191.998.572 1.431 2.75 1.093 5.552-.08.69-.212 1.415-.374 2.156a35.565 35.565 0 0 0-4.66-.8 35.785 35.785 0 0 0-3.052-3.666c2.392-2.223 4.638-3.44 6.164-3.44V.978c-2.018 0-4.66 1.438-7.33 3.932-2.672-2.48-5.313-3.902-7.331-3.902v1.635c1.519 0 3.771 1.21 6.164 3.418a34.652 34.652 0 0 0-3.031 3.66 34.277 34.277 0 0 0-4.667.807A22.116 22.116 0 0 1 8.74 8.4c-.344-2.802.081-4.98 1.072-5.56.22-.132.506-.19.844-.19V1.015c-.617 0-1.174.132-1.659.41-2.062 1.189-2.524 4.893-1.46 9.543C2.972 12.376 0 14.628 0 17.004c0 2.383 2.987 4.642 7.565 6.043-1.056 4.665-.587 8.376 1.483 9.564.477.279 1.034.41 1.65.41 2.019 0 4.66-1.437 7.331-3.93 2.671 2.478 5.313 3.901 7.331 3.901.616 0 1.174-.132 1.658-.41 2.062-1.189 2.525-4.892 1.46-9.542C33.029 21.639 36 19.38 36 17.004Zm-9.554-4.892a33.05 33.05 0 0 1-.99 2.897 39.656 39.656 0 0 0-2.018-3.476 33.12 33.12 0 0 1 3.008.579Zm-3.36 7.81c-.573.99-1.16 1.93-1.77 2.802a38.22 38.22 0 0 1-6.618.008 40.464 40.464 0 0 1-1.776-2.787 38.23 38.23 0 0 1-1.526-2.92 39.088 39.088 0 0 1 3.287-5.728 38.18 38.18 0 0 1 6.62-.007 40.488 40.488 0 0 1 1.775 2.787c.558.961 1.064 1.937 1.526 2.92a41.102 41.102 0 0 1-1.519 2.926Zm2.37-.953c.396.983.733 1.966 1.012 2.92-.961.234-1.974.432-3.023.586.36-.565.719-1.144 1.056-1.738.338-.587.653-1.181.954-1.768Zm-7.441 7.826a30.212 30.212 0 0 1-2.04-2.347c.66.03 1.335.051 2.018.051.69 0 1.372-.014 2.04-.051a28.612 28.612 0 0 1-2.018 2.347Zm-5.46-4.32a33.113 33.113 0 0 1-3.008-.58c.271-.945.609-1.921.99-2.896.301.586.617 1.173.962 1.76s.697 1.159 1.056 1.716Zm5.423-15.262a30.248 30.248 0 0 1 2.04 2.346c-.66-.029-1.336-.05-2.018-.05a37.3 37.3 0 0 0-2.04.05 28.626 28.626 0 0 1 2.018-2.346Zm-5.43 4.32a40.489 40.489 0 0 0-2.01 3.498 31.444 31.444 0 0 1-1.013-2.92 35.63 35.63 0 0 1 3.023-.579Zm-6.641 9.182c-2.598-1.108-4.278-2.56-4.278-3.711 0-1.152 1.68-2.611 4.278-3.711a22.62 22.62 0 0 1 2.033-.741 35.217 35.217 0 0 0 1.65 4.466 34.714 34.714 0 0 0-1.628 4.445 22.3 22.3 0 0 1-2.055-.748Zm3.948 10.48c-.998-.572-1.431-2.75-1.093-5.552.08-.689.212-1.415.374-2.156 1.438.352 3.008.623 4.66.8a35.785 35.785 0 0 0 3.052 3.667c-2.392 2.222-4.638 3.44-6.164 3.44-.33-.008-.609-.074-.83-.199Zm17.406-5.588c.344 2.801-.081 4.98-1.072 5.559-.22.132-.506.19-.844.19-1.519 0-3.771-1.21-6.164-3.417a34.653 34.653 0 0 0 3.031-3.66 34.289 34.289 0 0 0 4.667-.806c.169.74.3 1.452.381 2.134Zm2.825-4.892a22.59 22.59 0 0 1-2.033.74 35.226 35.226 0 0 0-1.651-4.466 34.724 34.724 0 0 0 1.629-4.445c.726.228 1.416.477 2.062.749 2.598 1.107 4.278 2.56 4.278 3.71-.007 1.152-1.688 2.612-4.285 3.712Z"/><path fill="#009DF8" d="M17.993 20.355a3.353 3.353 0 1 0-3.354-3.351 3.353 3.353 0 0 0 3.354 3.351Z"/></svg>