<svg xmlns="http://www.w3.org/2000/svg" width="30" height="34" fill="none"><g clip-path="url(#a)"><path fill="#6CEBB6" d="M2.512 30.438 0 .057l30 .061-2.656 30.32-12.23 3.505-12.602-3.505Z"/><path fill="#97F8CF" d="M15.113 31.009V2.95l12.355.041-2.204 25.104-10.15 2.914Z"/><path fill="#EFFBFF" d="M24.4 6.537H5.394l.514 3.667h9.019l-8.874 3.77.514 3.546h13.075l-.474 4.95-4.426.857-4.015-1.019-.31-2.812H6.734l.494 5.848 7.907 2.18 7.577-2.384.968-11.43h-8.01l8.73-3.587V6.537Z"/></g><defs><clipPath id="a"><path fill="#fff" d="M0 0h30v34H0z"/></clipPath></defs></svg>