<svg xmlns="http://www.w3.org/2000/svg" width="31" height="32" fill="none"><g clip-path="url(#a)"><path fill="#009DF8" d="M0 .5h31v31H0V.5Z"/><path fill="#EFFBFF" d="M28.463 24.107c-.227-1.415-1.15-2.602-3.881-3.71-.949-.437-2.007-.749-2.322-1.468-.112-.418-.127-.654-.056-.907.203-.823 1.184-1.08 1.962-.843.501.168.976.554 1.262 1.17 1.337-.867 1.335-.86 2.269-1.456-.342-.53-.525-.775-.749-1.002-.804-.899-1.9-1.361-3.654-1.326-.303.038-.61.08-.913.118-.875.22-1.71.68-2.199 1.296-1.467 1.665-1.049 4.58.737 5.779 1.76 1.32 4.344 1.62 4.674 2.855.32 1.512-1.111 2.001-2.535 1.827-1.049-.218-1.632-.751-2.263-1.72-1.16.671-1.16.671-2.354 1.358.283.619.58.899 1.055 1.435 2.245 2.278 7.865 2.166 8.873-1.282.04-.118.312-.907.094-2.125Zm-11.61-9.36h-2.9c0 2.505-.012 4.992-.012 7.497 0 1.594.083 3.056-.177 3.504-.424.88-1.523.772-2.024.601-.51-.25-.77-.607-1.07-1.11-.082-.145-.144-.257-.165-.266-.787.48-1.57.963-2.357 1.444.392.804.97 1.503 1.709 1.956 1.105.663 2.59.867 4.143.51 1.01-.294 1.883-.904 2.34-1.833.66-1.217.518-2.69.513-4.32.014-2.658 0-5.316 0-7.982Z"/></g><defs><clipPath id="a"><path fill="#fff" d="M0 .5h31v31H0z"/></clipPath></defs></svg>