<svg xmlns="http://www.w3.org/2000/svg" width="46" height="28" fill="none"><g clip-path="url(#a)"><path fill="#6CEBB6" d="M23 0c-6.131 0-9.963 3.111-11.496 9.333 2.3-3.111 4.982-4.277 8.047-3.5 1.75.444 3 1.732 4.383 3.157C26.188 11.312 28.797 14 34.496 14c6.13 0 9.963-3.111 11.495-9.334-2.299 3.111-4.981 4.278-8.047 3.5-1.749-.443-2.999-1.731-4.383-3.157C31.308 2.687 28.698 0 23.001 0ZM11.504 14C5.374 14 1.541 17.11.01 23.333c2.299-3.11 4.981-4.278 8.047-3.5 1.749.445 2.999 1.732 4.383 3.157C14.693 25.312 17.302 28 23 28c6.131 0 9.963-3.111 11.496-9.334-2.3 3.112-4.982 4.279-8.047 3.5-1.75-.443-3-1.732-4.383-3.156C19.812 16.688 17.203 14 11.504 14Z"/></g><defs><clipPath id="a"><path fill="#fff" d="M0 0h46v28H0z"/></clipPath></defs></svg>