<svg xmlns="http://www.w3.org/2000/svg" width="43" height="32" fill="none"><g clip-path="url(#a)"><path fill="#708AF4" d="M37.004 18.383a8.915 8.915 0 0 0-3.897.9c-.404-.791-.807-1.483-.874-2-.075-.6-.168-.966-.075-1.683.092-.717.512-1.733.512-1.817-.009-.075-.093-.441-.958-.45-.864-.008-1.612.167-1.696.392A9.514 9.514 0 0 0 29.655 15c-.151.783-1.73 3.558-2.629 5.017-.294-.567-.546-1.067-.596-1.467-.076-.6-.168-.967-.076-1.683.093-.717.512-1.734.512-1.817-.008-.075-.092-.442-.957-.45-.865-.008-1.612.167-1.696.392-.084.225-.177.758-.361 1.275-.177.516-2.276 5.15-2.822 6.358a25.64 25.64 0 0 1-.697 1.442c-.177.333-.009.025-.026.058l-.235.442v.008c-.117.208-.243.408-.302.408-.042 0-.126-.558.017-1.325.31-1.608 1.066-4.116 1.058-4.208 0-.042.143-.483-.487-.708-.613-.225-.832.15-.882.15-.05 0-.092.133-.092.133s.68-2.825-1.302-2.825c-1.243 0-2.957 1.342-3.805 2.567-.537.291-1.68.908-2.889 1.567-.462.25-.94.516-1.394.758l-.092-.1C7.5 18.45 3.057 16.65 3.242 13.233c.067-1.241.504-4.516 8.533-8.483 6.576-3.25 11.841-2.358 12.757-.375 1.302 2.833-2.814 8.1-9.65 8.858-2.604.292-3.973-.708-4.317-1.083-.36-.392-.411-.408-.546-.333-.218.116-.084.466 0 .675.202.525 1.042 1.458 2.47 1.925 1.25.408 4.308.633 8.003-.784 4.14-1.591 7.374-6.008 6.425-9.7-.966-3.758-7.248-4.991-13.186-2.9-3.535 1.25-7.365 3.2-10.12 5.759C.336 9.825-.185 12.475.034 13.575c.764 3.925 6.214 6.483 8.398 8.375-.11.058-.21.117-.302.167-1.092.533-5.25 2.691-6.29 4.975-1.177 2.583.184 4.441 1.091 4.691 2.805.775 5.677-.616 7.231-2.908 1.545-2.292 1.36-5.267.647-6.625l-.025-.05.856-.5c.554-.325 1.1-.625 1.579-.883-.269.725-.462 1.583-.563 2.833-.117 1.467.487 3.367 1.285 4.117.353.325.773.333 1.033.333.924 0 1.344-.759 1.806-1.667.571-1.108 1.075-2.391 1.075-2.391s-.63 3.475 1.092 3.475c.63 0 1.26-.809 1.545-1.225v.008s.017-.025.05-.083c.036-.052.07-.105.101-.159v-.016c.252-.434.815-1.425 1.655-3.067 1.083-2.117 2.125-4.767 2.125-4.767s.1.65.411 1.717c.185.633.588 1.325.899 2-.252.35-.403.55-.403.55l.008.008c-.201.267-.428.55-.663.834-.857 1.016-1.882 2.175-2.016 2.508-.16.392-.126.683.185.917.226.166.63.2 1.058.166a4.743 4.743 0 0 0 1.579-.358c.42-.15.898-.375 1.36-.708.84-.617 1.352-1.492 1.302-2.659-.025-.641-.235-1.274-.495-1.875.075-.108.15-.216.226-.333 1.327-1.925 2.352-4.042 2.352-4.042s.1.65.411 1.717c.16.542.48 1.134.765 1.717-1.243 1.008-2.024 2.175-2.293 2.942-.496 1.416-.11 2.058.621 2.208.328.067.798-.083 1.15-.233a5.229 5.229 0 0 0 1.454-.742c.84-.617 1.646-1.475 1.604-2.633-.025-.534-.168-1.059-.361-1.559 1.058-.433 2.427-.683 4.166-.475 3.737.434 4.476 2.75 4.333 3.717-.143.967-.924 1.5-1.184 1.667-.26.158-.344.216-.32.333.034.175.152.167.379.133.31-.05 1.965-.791 2.032-2.575.1-2.292-2.091-4.792-5.98-4.767ZM8.18 28.025c-1.235 1.342-2.973 1.85-3.712 1.417-.798-.459-.487-2.434 1.033-3.859.924-.866 2.125-1.666 2.914-2.158.177-.108.445-.267.764-.458.05-.034.084-.05.084-.05.06-.034.126-.075.194-.117.562 2.033.025 3.817-1.277 5.225Zm9.028-6.092c-.428 1.042-1.335 3.717-1.88 3.567-.471-.125-.757-2.15-.093-4.15.336-1.008 1.05-2.208 1.47-2.675.68-.75 1.419-1 1.604-.692.218.4-.832 3.3-1.1 3.95Zm7.45 3.534c-.185.091-.353.158-.429.108-.058-.033.076-.158.076-.158s.932-.992 1.302-1.45c.21-.267.462-.575.73-.925v.1c0 1.2-1.159 2-1.68 2.325Zm5.744-1.3c-.134-.1-.117-.409.336-1.375.177-.384.58-1.025 1.277-1.634.084.25.134.492.126.717-.009 1.5-1.084 2.058-1.739 2.292Z"/></g><defs><clipPath id="a"><path fill="#fff" d="M0 0h43v32H0z"/></clipPath></defs></svg>