<svg xmlns="http://www.w3.org/2000/svg" width="31" height="32" fill="none"><g clip-path="url(#a)"><path fill="#009DF8" d="M0 16V.5h31v31H0"/><path fill="#EFFBFF" d="M6.797 16.054v1.264h4.03v11.47h2.86v-11.47h4.03v-1.24c0-.698 0-1.264-.032-1.28 0-.023-2.456-.03-5.44-.03l-5.425.023v1.271l-.023-.008Zm18.111-1.294c.79.186 1.395.543 1.938 1.108.287.31.713.853.744.992 0 .047-1.34.954-2.155 1.457-.03.023-.155-.108-.279-.31-.403-.573-.813-.821-1.457-.868-.93-.062-1.55.427-1.55 1.24 0 .248.047.388.14.59.21.425.597.681 1.798 1.208 2.216.954 3.177 1.581 3.759 2.48.658 1.008.806 2.589.364 3.774-.496 1.295-1.705 2.17-3.433 2.457-.543.093-1.783.078-2.364-.023-1.24-.232-2.426-.852-3.154-1.65-.287-.31-.837-1.14-.806-1.194l.294-.186 1.163-.675.875-.511.202.271c.256.403.83.946 1.162 1.132 1.008.519 2.356.45 3.023-.155.287-.264.41-.543.41-.93 0-.357-.054-.52-.232-.79-.248-.342-.744-.62-2.139-1.24-1.604-.683-2.286-1.117-2.922-1.783-.364-.403-.697-1.031-.852-1.55-.116-.45-.155-1.55-.047-1.992.334-1.55 1.504-2.635 3.178-2.945.542-.108 1.821-.062 2.356.078l-.016.015Z"/></g><defs><clipPath id="a"><path fill="#fff" d="M0 .5h31v31H0z"/></clipPath></defs></svg>