<svg xmlns="http://www.w3.org/2000/svg" width="33" height="36" fill="none"><g fill="#708AF4" clip-path="url(#a)"><path d="M15.015.457a3.06 3.06 0 0 1 2.962 0c4.51 2.524 9.022 5.045 13.531 7.57.848.474 1.415 1.409 1.407 2.377V25.59c.006 1.008-.617 1.966-1.512 2.428-4.495 2.51-8.988 5.024-13.483 7.535-.916.518-2.108.478-2.995-.083-1.348-.774-2.698-1.544-4.045-2.317-.276-.163-.586-.292-.78-.557.171-.229.479-.258.728-.358.563-.177 1.08-.461 1.596-.737.131-.089.29-.055.416.024 1.152.655 2.295 1.328 3.45 1.976.248.142.497-.046.708-.162 4.411-2.47 8.828-4.93 13.238-7.4a.433.433 0 0 0 .241-.427c.003-5.01 0-10.021.002-15.031a.469.469 0 0 0-.283-.469c-4.48-2.499-8.957-5.001-13.436-7.501a.47.47 0 0 0-.527 0c-4.48 2.5-8.956 5.005-13.435 7.503a.464.464 0 0 0-.284.467v15.031a.421.421 0 0 0 .244.422c1.195.672 2.392 1.338 3.588 2.007.673.36 1.5.573 2.243.298a1.686 1.686 0 0 0 1.102-1.584c.006-4.981-.003-9.963.004-14.943-.016-.22.196-.403.413-.382.574-.004 1.15-.008 1.723.001.24-.005.405.233.376.455-.003 5.013.006 10.025-.004 15.037.001 1.336-.553 2.79-1.8 3.443-1.537.789-3.436.622-4.955-.134-1.314-.65-2.568-1.417-3.86-2.113-.896-.46-1.517-1.421-1.51-2.429V10.404c-.01-.988.58-1.94 1.455-2.406L15.015.458Z"/><path d="M18.936 10.977c1.96-.125 4.058-.074 5.823.883 1.365.733 2.122 2.271 2.146 3.774-.038.203-.252.315-.447.301-.569 0-1.138.008-1.706-.004-.242.01-.382-.211-.412-.422-.163-.72-.56-1.432-1.243-1.778-1.049-.52-2.265-.495-3.409-.484-.835.044-1.733.116-2.44.602-.543.369-.708 1.112-.514 1.711.182.43.684.57 1.094.697 2.362.612 4.866.551 7.183 1.357.96.328 1.898.966 2.226 1.961.43 1.334.241 2.928-.717 3.998-.776.881-1.908 1.36-3.036 1.621-1.501.332-3.059.34-4.583.193-1.433-.162-2.925-.535-4.032-1.502-.946-.814-1.408-2.082-1.362-3.306.01-.207.219-.35.418-.334a85.574 85.574 0 0 1 1.719.001c.228-.016.398.18.41.393.105.685.365 1.404.968 1.81 1.165.744 2.625.693 3.958.714 1.104-.048 2.344-.063 3.245-.786.475-.412.616-1.102.488-1.695-.14-.502-.669-.735-1.123-.888-2.332-.73-4.863-.465-7.173-1.292-.938-.328-1.844-.948-2.205-1.902-.502-1.35-.272-3.021.786-4.056 1.032-1.029 2.522-1.425 3.938-1.567Z"/></g><defs><clipPath id="a"><path fill="#fff" d="M0 0h33v36H0z"/></clipPath></defs></svg>