<svg width="46" height="28" viewBox="0 0 46 28" fill="none" xmlns="http://www.w3.org/2000/svg">
<g clip-path="url(#clip0_98_96)">
<path d="M23.0001 0C16.869 0 13.0372 3.11118 11.5043 9.33294C13.8037 6.22177 16.486 5.05551 19.5513 5.83302C21.3004 6.27664 22.5504 7.56488 23.9344 8.9903C26.1884 11.3123 28.7971 13.9997 34.4958 13.9997C40.6263 13.9997 44.4586 10.8885 45.9909 4.66618C43.6921 7.77736 41.0098 8.94419 37.944 8.16669C36.1954 7.72307 34.9454 6.43482 33.5614 5.0094C31.3075 2.6874 28.6982 0 23.0001 0ZM11.5043 13.9997C5.37379 13.9997 1.5415 17.1109 0.00915527 23.3332C2.30796 20.2221 4.99028 19.0552 8.05611 19.8333C9.80465 20.2775 11.0547 21.5652 12.4387 22.99C14.6926 25.312 17.3019 28 23.0001 28C29.1311 28 32.9629 24.8888 34.4958 18.6665C32.1964 21.7776 29.5141 22.9445 26.4488 22.1664C24.6997 21.7234 23.4497 20.4345 22.0657 19.0097C19.8117 16.6877 17.203 13.9997 11.5043 13.9997Z" fill="#6CEBB6"/>
</g>
<defs>
<clipPath id="clip0_98_96">
<rect width="46" height="28" fill="white"/>
</clipPath>
</defs>
</svg>
