<svg width="489" height="350" viewBox="0 0 489 350" fill="none" xmlns="http://www.w3.org/2000/svg">
<path fill-rule="evenodd" clip-rule="evenodd" d="M171.69 5.89999C163.43 1.96666 157.137 0 152.81 0C148.483 0 145.14 1.37666 142.78 4.12998L5.9 167.56C1.96667 171.493 0 175.623 0 179.95C0 184.277 2.75333 189.193 8.26 194.7L144.55 345.74C147.303 348.493 150.647 349.87 154.58 349.87C158.907 349.87 165.2 348.1 173.46 344.56C181.72 340.627 188.603 335.12 194.11 328.04C199.617 320.567 202.37 315.257 202.37 312.11C202.37 308.57 201.19 305.62 198.83 303.26L77.88 178.77L197.06 46.61C199.42 44.25 200.6 41.4967 200.6 38.35C200.6 34.81 197.847 29.5 192.34 22.42C187.227 15.34 180.343 9.83332 171.69 5.89999ZM187.733 323.209C190.323 319.687 192.102 316.893 193.203 314.77C194.215 312.817 194.352 311.998 194.368 312C194.369 312 194.369 312.001 194.369 312.002C194.35 310.508 193.917 309.661 193.173 308.917L193.132 308.876L66.9239 178.974L191.257 41.0991L191.403 40.9531C192.364 39.9924 192.6 39.2362 192.6 38.35C192.6 38.3645 192.6 38.3619 192.596 38.3413C192.574 38.207 192.424 37.3059 191.433 35.395C190.362 33.3295 188.612 30.6569 186.025 27.3315L185.938 27.2192L185.855 27.1039C181.627 21.2499 175.882 16.593 168.38 13.1829L168.315 13.1535L168.251 13.1229C160.127 9.25461 155.223 8 152.81 8C150.356 8 149.423 8.68251 148.876 9.31096L11.8064 172.967L11.5569 173.217C8.6754 176.098 8 178.305 8 179.95C8 180.991 8.81451 183.941 13.9169 189.043L14.062 189.188L150.329 340.203C151.529 341.355 152.805 341.87 154.58 341.87C157.163 341.87 162.141 340.696 170.16 337.27C177.224 333.882 183.048 329.206 187.733 323.209ZM476.345 172.967L339.754 9.88305C338.721 9.14828 337.208 8.58999 334.751 8.58999C332.734 8.58999 327.868 9.82459 319.182 13.7729L319.103 13.8089L319.023 13.8431C312.047 16.8327 306.281 21.2675 301.622 27.2215C299.269 30.4886 297.666 33.1275 296.677 35.183C296.181 36.2132 295.883 37.0059 295.716 37.5834C295.562 38.1182 295.552 38.3573 295.551 38.3573C295.551 38.3573 295.551 38.3548 295.551 38.35C295.551 39.2362 295.787 39.9924 296.748 40.9531L296.894 41.0991L421.227 178.974L295.019 308.876L294.978 308.917C294.222 309.673 293.787 310.537 293.781 312.078C293.781 312.066 293.782 312.059 293.783 312.059C293.796 312.058 293.912 312.915 294.907 314.982C295.923 317.093 297.553 319.853 299.913 323.317C304.57 329.246 310.348 333.877 317.343 337.242C325.872 340.717 330.797 341.87 332.981 341.87C335.355 341.87 336.761 341.213 337.826 340.199L474.089 189.188L474.234 189.043C479.337 183.941 480.151 180.991 480.151 179.95C480.151 178.305 479.476 176.098 476.594 173.217L476.345 172.967ZM343.601 345.74C340.848 348.493 337.308 349.87 332.981 349.87C329.048 349.87 322.755 348.1 314.101 344.56C305.841 340.627 298.958 335.12 293.451 328.04C288.338 320.567 285.781 315.257 285.781 312.11C285.781 308.57 286.961 305.62 289.321 303.26L410.271 178.77L291.091 46.61C288.731 44.25 287.551 41.4967 287.551 38.35C287.551 34.81 290.108 29.5 295.221 22.42C300.728 15.34 307.611 10.03 315.871 6.48999C324.525 2.55666 330.818 0.589992 334.751 0.589992C339.078 0.589992 342.618 1.76999 345.371 4.12998L482.251 167.56C486.185 171.493 488.151 175.623 488.151 179.95C488.151 184.277 485.398 189.193 479.891 194.7L343.601 345.74Z" fill="url(#paint0_linear_308_118)" fill-opacity="0.28"/>
<defs>
<linearGradient id="paint0_linear_308_118" x1="483.82" y1="24.92" x2="18.3201" y2="376.42" gradientUnits="userSpaceOnUse">
<stop stop-color="#009DF8"/>
<stop offset="0.25" stop-color="#6CEBB6"/>
<stop offset="0.494792" stop-color="#708AF4"/>
<stop offset="0.848958" stop-color="#708AF4" stop-opacity="0"/>
</linearGradient>
</defs>
</svg>
