<svg width="121" height="44" viewBox="0 0 121 44" fill="none" xmlns="http://www.w3.org/2000/svg">
<g clip-path="url(#clip0_124_200)">
<path d="M105.668 16.0146L99.499 10.6668L105.668 5.31909L106.722 6.51264L101.937 10.6668L106.722 14.8211L105.668 16.0146Z" fill="#EFFBFF"/>
<path d="M112.83 16.0146L111.777 14.8211L116.562 10.6668L111.777 6.51264L112.83 5.31909L119 10.6668L112.83 16.0146Z" fill="#EFFBFF"/>
</g>
<path d="M13.2736 15.3305C13.2736 16.2369 13.1731 17.0799 12.9719 17.8594C12.789 18.6389 12.4507 19.3278 11.957 19.9261C11.4816 20.5062 10.8324 20.9685 10.0095 21.3129C9.20489 21.6392 8.18999 21.8024 6.96479 21.8024C6.34305 21.8024 5.76702 21.748 5.23671 21.6392C4.72469 21.5486 4.25838 21.4307 3.83779 21.2857C3.4172 21.1226 3.05147 20.9594 2.7406 20.7962C2.42973 20.615 2.18287 20.4427 2 20.2796L3.04233 18.1857C3.42635 18.4577 3.92008 18.7477 4.52354 19.0559C5.14528 19.346 5.91331 19.491 6.82764 19.491C8.14427 19.491 9.10431 19.1647 9.70777 18.512C10.3112 17.8413 10.6129 16.6992 10.6129 15.0857V2.54983H13.2736V15.3305Z" fill="#EFFBFF"/>
<path d="M23.5598 21.8024C22.3163 21.8024 21.2374 21.612 20.3231 21.2313C19.4088 20.8506 18.659 20.334 18.0738 19.6813C17.4887 19.0106 17.0498 18.222 16.7572 17.3156C16.4829 16.4091 16.3458 15.4302 16.3458 14.3787V2.54983H19.0065V14.0796C19.0065 15.965 19.427 17.3337 20.2682 18.1857C21.1094 19.0378 22.2066 19.4638 23.5598 19.4638C24.2364 19.4638 24.849 19.3641 25.3976 19.1647C25.9645 18.9471 26.4491 18.6208 26.8514 18.1857C27.2537 17.7506 27.5645 17.1977 27.784 16.527C28.0034 15.8381 28.1131 15.0223 28.1131 14.0796V2.54983H30.7738V14.3787C30.7738 15.4302 30.6275 16.4091 30.335 17.3156C30.0607 18.222 29.6218 19.0106 29.0183 19.6813C28.4332 20.334 27.6834 20.8506 26.7691 21.2313C25.873 21.612 24.8033 21.8024 23.5598 21.8024Z" fill="#EFFBFF"/>
<path d="M47.0253 21.3945C46.623 20.7237 46.1567 19.9714 45.6264 19.1375C45.1144 18.3036 44.5566 17.4425 43.9532 16.5542C43.3497 15.6477 42.7188 14.7322 42.0605 13.8077C41.4205 12.8831 40.7805 11.9948 40.1405 11.1428C39.5004 10.2726 38.8787 9.45682 38.2752 8.69542C37.6718 7.93402 37.114 7.26326 36.602 6.68315V21.3945H33.9962V2.54983H36.1083C36.9677 3.45626 37.8821 4.51678 38.8513 5.7314C39.8387 6.92788 40.8079 8.16969 41.7588 9.45682C42.728 10.7258 43.6332 11.9767 44.4744 13.2094C45.3338 14.4422 46.0561 15.539 46.6413 16.4998V2.54983H49.2471V21.3945H47.0253Z" fill="#EFFBFF"/>
<path d="M52.5809 2.54983H55.2416V21.3945H52.5809V2.54983Z" fill="#EFFBFF"/>
<path d="M57.8078 11.9586C57.8078 10.3451 58.0455 8.92202 58.521 7.68928C59.0147 6.45654 59.673 5.43227 60.4959 4.61649C61.3371 3.78257 62.3063 3.15714 63.4035 2.74018C64.5189 2.32322 65.6984 2.11475 66.9419 2.11475C68.1671 2.11475 69.3192 2.32322 70.3981 2.74018C71.4953 3.15714 72.4553 3.78257 73.2782 4.61649C74.1011 5.43227 74.7503 6.45654 75.2257 7.68928C75.7194 8.92202 75.9663 10.3451 75.9663 11.9586C75.9663 13.572 75.7194 14.9951 75.2257 16.2278C74.7503 17.4606 74.1011 18.4939 73.2782 19.3278C72.4553 20.1436 71.4953 20.76 70.3981 21.1769C69.3192 21.5939 68.1671 21.8024 66.9419 21.8024C65.6984 21.8024 64.5189 21.5939 63.4035 21.1769C62.3063 20.76 61.3371 20.1436 60.4959 19.3278C59.673 18.4939 59.0147 17.4606 58.521 16.2278C58.0455 14.9951 57.8078 13.572 57.8078 11.9586ZM60.6056 11.9586C60.6056 13.1007 60.7519 14.1431 61.0445 15.0857C61.3371 16.0103 61.7485 16.7989 62.2789 17.4515C62.8274 18.1041 63.4858 18.6117 64.2538 18.9743C65.0401 19.3188 65.9179 19.491 66.8871 19.491C67.8562 19.491 68.7248 19.3188 69.4929 18.9743C70.2609 18.6117 70.9101 18.1041 71.4404 17.4515C71.989 16.7989 72.4096 16.0103 72.7022 15.0857C72.9947 14.1431 73.141 13.1007 73.141 11.9586C73.141 10.8165 72.9947 9.78313 72.7022 8.85857C72.4096 7.91589 71.989 7.11823 71.4404 6.4656C70.9101 5.81297 70.2609 5.31444 69.4929 4.97C68.7248 4.60742 67.8562 4.42614 66.8871 4.42614C65.9179 4.42614 65.0401 4.60742 64.2538 4.97C63.4858 5.31444 62.8274 5.81297 62.2789 6.4656C61.7485 7.11823 61.3371 7.91589 61.0445 8.85857C60.7519 9.78313 60.6056 10.8165 60.6056 11.9586Z" fill="#EFFBFF"/>
<path d="M87.8522 13.5086C88.1448 13.8711 88.5105 14.3515 88.9494 14.9498C89.4065 15.5299 89.8728 16.1825 90.3483 16.9077C90.8237 17.6147 91.2901 18.3579 91.7472 19.1375C92.2227 19.917 92.625 20.6693 92.9541 21.3945H90.0466C89.6808 20.7056 89.2785 20.0076 88.8397 19.3006C88.4191 18.5936 87.9893 17.9229 87.5505 17.2884C87.1116 16.6357 86.6727 16.0284 86.2338 15.4664C85.8132 14.9045 85.4292 14.415 85.0818 13.998C84.8441 14.0162 84.5972 14.0252 84.3412 14.0252C84.1034 14.0252 83.8566 14.0252 83.6006 14.0252H81.2142V21.3945H78.5535V2.82176C79.3032 2.64048 80.1353 2.52264 81.0496 2.46825C81.9822 2.39574 82.8325 2.35948 83.6006 2.35948C86.2704 2.35948 88.3002 2.85802 89.69 3.85509C91.098 4.85216 91.8021 6.3387 91.8021 8.31472C91.8021 9.56559 91.4638 10.6352 90.7872 11.5235C90.1289 12.4118 89.1505 13.0735 87.8522 13.5086ZM83.82 4.67088C82.6862 4.67088 81.8176 4.69807 81.2142 4.75245V11.8498H83.1068C84.0212 11.8498 84.8441 11.8045 85.5755 11.7138C86.307 11.6232 86.9196 11.451 87.4133 11.1972C87.9253 10.9434 88.3185 10.5899 88.5928 10.1366C88.8671 9.6653 89.0042 9.04892 89.0042 8.28752C89.0042 7.58051 88.8671 6.99133 88.5928 6.51999C88.3185 6.04865 87.9436 5.67701 87.4682 5.40508C87.011 5.13315 86.4624 4.9428 85.8224 4.83403C85.2006 4.72526 84.5332 4.67088 83.82 4.67088Z" fill="#EFFBFF"/>
<path d="M22.2676 42.197C20.9327 42.197 19.7166 41.9795 18.6194 41.5444C17.5223 41.1093 16.5805 40.4748 15.7942 39.6409C15.0079 38.807 14.3953 37.7827 13.9564 36.5681C13.5358 35.3353 13.3255 33.9304 13.3255 32.3532C13.3255 30.776 13.5632 29.3801 14.0387 28.1655C14.5324 26.9328 15.1907 25.8994 16.0136 25.0655C16.8365 24.2316 17.7965 23.5971 18.8937 23.162C19.9909 22.7269 21.1613 22.5094 22.4048 22.5094C23.1911 22.5094 23.8951 22.5638 24.5168 22.6725C25.1569 22.7813 25.7055 22.9082 26.1626 23.0532C26.6381 23.1983 27.0221 23.3433 27.3147 23.4883C27.6073 23.6334 27.8084 23.7421 27.9181 23.8146L27.1501 25.9901C26.9855 25.8813 26.7478 25.7635 26.4369 25.6366C26.1261 25.5097 25.7695 25.3828 25.3672 25.2559C24.9831 25.129 24.5534 25.0293 24.078 24.9567C23.6208 24.8661 23.1545 24.8208 22.679 24.8208C21.6733 24.8208 20.7681 24.993 19.9635 25.3374C19.1589 25.6819 18.4732 26.1804 17.9063 26.833C17.3394 27.4857 16.9005 28.2833 16.5896 29.226C16.2971 30.1506 16.1508 31.193 16.1508 32.3532C16.1508 33.4772 16.2788 34.5014 16.5348 35.426C16.8091 36.3505 17.2114 37.1482 17.7417 37.819C18.272 38.4716 18.9303 38.9792 19.7166 39.3418C20.5212 39.7043 21.4539 39.8856 22.5145 39.8856C23.7397 39.8856 24.7546 39.7587 25.5592 39.5049C26.3638 39.2511 26.9672 39.0245 27.3695 38.8251L28.0553 41.0005C27.9273 41.0912 27.6987 41.209 27.3695 41.354C27.0404 41.4809 26.6289 41.6078 26.1352 41.7347C25.6415 41.8616 25.0654 41.9704 24.4071 42.061C23.7488 42.1517 23.0356 42.197 22.2676 42.197Z" fill="#EFFBFF"/>
<path d="M36.8086 42.197C35.5651 42.197 34.4862 42.0067 33.5719 41.626C32.6576 41.2453 31.9078 40.7286 31.3226 40.076C30.7375 39.4052 30.2986 38.6166 30.006 37.7102C29.7317 36.8038 29.5946 35.8248 29.5946 34.7734V22.9445H32.2553V34.4742C32.2553 36.3596 32.6758 37.7283 33.517 38.5804C34.3582 39.4324 35.4554 39.8584 36.8086 39.8584C37.4852 39.8584 38.0978 39.7587 38.6464 39.5593C39.2133 39.3418 39.6979 39.0154 40.1002 38.5804C40.5025 38.1453 40.8133 37.5924 41.0328 36.9216C41.2522 36.2327 41.3619 35.4169 41.3619 34.4742V22.9445H44.0226V34.7734C44.0226 35.8248 43.8763 36.8038 43.5838 37.7102C43.3095 38.6166 42.8706 39.4052 42.2671 40.076C41.682 40.7286 40.9322 41.2453 40.0179 41.626C39.1218 42.0067 38.0521 42.197 36.8086 42.197Z" fill="#EFFBFF"/>
<path d="M60.2741 41.7891C59.8718 41.1184 59.4055 40.366 58.8752 39.5321C58.3632 38.6982 57.8054 37.8371 57.202 36.9488C56.5985 36.0424 55.9676 35.1269 55.3093 34.2023C54.6693 33.2778 54.0293 32.3895 53.3892 31.5374C52.7492 30.6672 52.1275 29.8515 51.524 29.0901C50.9206 28.3287 50.3628 27.6579 49.8508 27.0778V41.7891H47.245V22.9445H49.3571C50.2165 23.8509 51.1309 24.9114 52.1 26.126C53.0875 27.3225 54.0567 28.5643 55.0076 29.8515C55.9768 31.1205 56.882 32.3713 57.7232 33.6041C58.5826 34.8368 59.3049 35.9336 59.8901 36.8944V22.9445H62.4959V41.7891H60.2741Z" fill="#EFFBFF"/>
<path d="M81.4373 32.3532C81.4373 33.9848 81.1812 35.4079 80.6692 36.6225C80.1572 37.819 79.4349 38.816 78.5023 39.6137C77.5697 40.3932 76.4542 40.9824 75.1558 41.3812C73.8575 41.7619 72.4312 41.9523 70.8768 41.9523C70.1088 41.9523 69.2584 41.916 68.3258 41.8435C67.4115 41.7891 66.5795 41.6713 65.8297 41.49V23.2164C66.5795 23.0351 67.4115 22.9173 68.3258 22.8629C69.2584 22.7904 70.1088 22.7541 70.8768 22.7541C72.4312 22.7541 73.8575 22.9535 75.1558 23.3524C76.4542 23.7331 77.5697 24.3222 78.5023 25.1199C79.4349 25.8994 80.1572 26.8965 80.6692 28.1111C81.1812 29.3076 81.4373 30.7216 81.4373 32.3532ZM71.0962 39.6409C73.6198 39.6409 75.5033 39.0064 76.7468 37.7374C77.9903 36.4503 78.612 34.6555 78.612 32.3532C78.612 30.0509 77.9903 28.2652 76.7468 26.9962C75.5033 25.7091 73.6198 25.0655 71.0962 25.0655C70.3465 25.0655 69.7613 25.0746 69.3407 25.0927C68.9384 25.1108 68.655 25.129 68.4904 25.1471V39.5593C68.655 39.5774 68.9384 39.5956 69.3407 39.6137C69.7613 39.6318 70.3465 39.6409 71.0962 39.6409Z" fill="#EFFBFF"/>
<path d="M96.2037 41.7891C95.8928 40.9733 95.6002 40.1757 95.3259 39.3961C95.0516 38.5985 94.7682 37.7918 94.4756 36.976H85.8627L84.1346 41.7891H81.3642C82.0956 39.795 82.7814 37.9549 83.4214 36.269C84.0615 34.5649 84.6832 32.9514 85.2867 31.4286C85.9084 29.9058 86.521 28.4556 87.1244 27.0778C87.7279 25.6819 88.3588 24.3041 89.0171 22.9445H91.4583C92.1167 24.3041 92.7475 25.6819 93.351 27.0778C93.9545 28.4556 94.5579 29.9058 95.1614 31.4286C95.7831 32.9514 96.414 34.5649 97.054 36.269C97.694 37.9549 98.3798 39.795 99.1113 41.7891H96.2037ZM93.7076 34.8006C93.1224 33.2234 92.5372 31.7006 91.9521 30.2322C91.3852 28.7456 90.7909 27.3225 90.1691 25.9629C89.5291 27.3225 88.9165 28.7456 88.3313 30.2322C87.7645 31.7006 87.1976 33.2234 86.6307 34.8006H93.7076Z" fill="#EFFBFF"/>
<path d="M109.619 33.9032C109.912 34.2658 110.278 34.7462 110.716 35.3444C111.174 35.9245 111.64 36.5772 112.115 37.3023C112.591 38.0093 113.057 38.7526 113.514 39.5321C113.99 40.3116 114.392 41.064 114.721 41.7891H111.814C111.448 41.1002 111.046 40.4023 110.607 39.6953C110.186 38.9883 109.756 38.3175 109.317 37.683C108.879 37.0304 108.44 36.4231 108.001 35.8611C107.58 35.2991 107.196 34.8096 106.849 34.3927C106.611 34.4108 106.364 34.4199 106.108 34.4199C105.87 34.4199 105.624 34.4199 105.368 34.4199H102.981V41.7891H100.321V23.2164C101.07 23.0351 101.902 22.9173 102.817 22.8629C103.749 22.7904 104.6 22.7541 105.368 22.7541C108.037 22.7541 110.067 23.2527 111.457 24.2497C112.865 25.2468 113.569 26.7333 113.569 28.7094C113.569 29.9602 113.231 31.0298 112.554 31.9181C111.896 32.8064 110.918 33.4681 109.619 33.9032ZM105.587 25.0655C104.453 25.0655 103.585 25.0927 102.981 25.1471V32.2444H104.874C105.788 32.2444 106.611 32.1991 107.343 32.1085C108.074 32.0178 108.687 31.8456 109.18 31.5918C109.692 31.338 110.086 30.9845 110.36 30.5313C110.634 30.0599 110.771 29.4436 110.771 28.6822C110.771 27.9751 110.634 27.386 110.36 26.9146C110.086 26.4433 109.711 26.0716 109.235 25.7997C108.778 25.5278 108.229 25.3374 107.589 25.2287C106.968 25.1199 106.3 25.0655 105.587 25.0655Z" fill="#EFFBFF"/>
<path d="M116.2 22.9445H118.86V41.7891H116.2V22.9445Z" fill="#EFFBFF"/>
<path d="M13.2736 15.3305C13.2736 16.2369 13.1731 17.0799 12.9719 17.8594C12.789 18.6389 12.4507 19.3278 11.957 19.9261C11.4816 20.5062 10.8324 20.9685 10.0095 21.3129C9.20489 21.6392 8.18999 21.8024 6.96479 21.8024C6.34305 21.8024 5.76702 21.748 5.23671 21.6392C4.72469 21.5486 4.25838 21.4307 3.83779 21.2857C3.4172 21.1226 3.05147 20.9594 2.7406 20.7962C2.42973 20.615 2.18287 20.4427 2 20.2796L3.04233 18.1857C3.42635 18.4577 3.92008 18.7477 4.52354 19.0559C5.14528 19.346 5.91331 19.491 6.82764 19.491C8.14427 19.491 9.10431 19.1647 9.70777 18.512C10.3112 17.8413 10.6129 16.6992 10.6129 15.0857V2.54983H13.2736V15.3305Z" stroke="#EFFBFF" stroke-width="3"/>
<path d="M23.5598 21.8024C22.3163 21.8024 21.2374 21.612 20.3231 21.2313C19.4088 20.8506 18.659 20.334 18.0738 19.6813C17.4887 19.0106 17.0498 18.222 16.7572 17.3156C16.4829 16.4091 16.3458 15.4302 16.3458 14.3787V2.54983H19.0065V14.0796C19.0065 15.965 19.427 17.3337 20.2682 18.1857C21.1094 19.0378 22.2066 19.4638 23.5598 19.4638C24.2364 19.4638 24.849 19.3641 25.3976 19.1647C25.9645 18.9471 26.4491 18.6208 26.8514 18.1857C27.2537 17.7506 27.5645 17.1977 27.784 16.527C28.0034 15.8381 28.1131 15.0223 28.1131 14.0796V2.54983H30.7738V14.3787C30.7738 15.4302 30.6275 16.4091 30.335 17.3156C30.0607 18.222 29.6218 19.0106 29.0183 19.6813C28.4332 20.334 27.6834 20.8506 26.7691 21.2313C25.873 21.612 24.8033 21.8024 23.5598 21.8024Z" stroke="#EFFBFF" stroke-width="3"/>
<path d="M47.0253 21.3945C46.623 20.7237 46.1567 19.9714 45.6264 19.1375C45.1144 18.3036 44.5566 17.4425 43.9532 16.5542C43.3497 15.6477 42.7188 14.7322 42.0605 13.8077C41.4205 12.8831 40.7805 11.9948 40.1405 11.1428C39.5004 10.2726 38.8787 9.45682 38.2752 8.69542C37.6718 7.93402 37.114 7.26326 36.602 6.68315V21.3945H33.9962V2.54983H36.1083C36.9677 3.45626 37.8821 4.51678 38.8513 5.7314C39.8387 6.92788 40.8079 8.16969 41.7588 9.45682C42.728 10.7258 43.6332 11.9767 44.4744 13.2094C45.3338 14.4422 46.0561 15.539 46.6413 16.4998V2.54983H49.2471V21.3945H47.0253Z" stroke="#EFFBFF" stroke-width="3"/>
<path d="M52.5809 2.54983H55.2416V21.3945H52.5809V2.54983Z" stroke="#EFFBFF" stroke-width="3"/>
<path d="M57.8078 11.9586C57.8078 10.3451 58.0455 8.92202 58.521 7.68928C59.0147 6.45654 59.673 5.43227 60.4959 4.61649C61.3371 3.78257 62.3063 3.15714 63.4035 2.74018C64.5189 2.32322 65.6984 2.11475 66.9419 2.11475C68.1671 2.11475 69.3192 2.32322 70.3981 2.74018C71.4953 3.15714 72.4553 3.78257 73.2782 4.61649C74.1011 5.43227 74.7503 6.45654 75.2257 7.68928C75.7194 8.92202 75.9663 10.3451 75.9663 11.9586C75.9663 13.572 75.7194 14.9951 75.2257 16.2278C74.7503 17.4606 74.1011 18.4939 73.2782 19.3278C72.4553 20.1436 71.4953 20.76 70.3981 21.1769C69.3192 21.5939 68.1671 21.8024 66.9419 21.8024C65.6984 21.8024 64.5189 21.5939 63.4035 21.1769C62.3063 20.76 61.3371 20.1436 60.4959 19.3278C59.673 18.4939 59.0147 17.4606 58.521 16.2278C58.0455 14.9951 57.8078 13.572 57.8078 11.9586ZM60.6056 11.9586C60.6056 13.1007 60.7519 14.1431 61.0445 15.0857C61.3371 16.0103 61.7485 16.7989 62.2789 17.4515C62.8274 18.1041 63.4858 18.6117 64.2538 18.9743C65.0401 19.3188 65.9179 19.491 66.8871 19.491C67.8562 19.491 68.7248 19.3188 69.4929 18.9743C70.2609 18.6117 70.9101 18.1041 71.4404 17.4515C71.989 16.7989 72.4096 16.0103 72.7022 15.0857C72.9947 14.1431 73.141 13.1007 73.141 11.9586C73.141 10.8165 72.9947 9.78313 72.7022 8.85857C72.4096 7.91589 71.989 7.11823 71.4404 6.4656C70.9101 5.81297 70.2609 5.31444 69.4929 4.97C68.7248 4.60742 67.8562 4.42614 66.8871 4.42614C65.9179 4.42614 65.0401 4.60742 64.2538 4.97C63.4858 5.31444 62.8274 5.81297 62.2789 6.4656C61.7485 7.11823 61.3371 7.91589 61.0445 8.85857C60.7519 9.78313 60.6056 10.8165 60.6056 11.9586Z" stroke="#EFFBFF" stroke-width="3"/>
<path d="M87.8522 13.5086C88.1448 13.8711 88.5105 14.3515 88.9494 14.9498C89.4065 15.5299 89.8728 16.1825 90.3483 16.9077C90.8237 17.6147 91.2901 18.3579 91.7472 19.1375C92.2227 19.917 92.625 20.6693 92.9541 21.3945H90.0466C89.6808 20.7056 89.2785 20.0076 88.8397 19.3006C88.4191 18.5936 87.9893 17.9229 87.5505 17.2884C87.1116 16.6357 86.6727 16.0284 86.2338 15.4664C85.8132 14.9045 85.4292 14.415 85.0818 13.998C84.8441 14.0162 84.5972 14.0252 84.3412 14.0252C84.1034 14.0252 83.8566 14.0252 83.6006 14.0252H81.2142V21.3945H78.5535V2.82176C79.3032 2.64048 80.1353 2.52264 81.0496 2.46825C81.9822 2.39574 82.8325 2.35948 83.6006 2.35948C86.2704 2.35948 88.3002 2.85802 89.69 3.85509C91.098 4.85216 91.8021 6.3387 91.8021 8.31472C91.8021 9.56559 91.4638 10.6352 90.7872 11.5235C90.1289 12.4118 89.1505 13.0735 87.8522 13.5086ZM83.82 4.67088C82.6862 4.67088 81.8176 4.69807 81.2142 4.75245V11.8498H83.1068C84.0212 11.8498 84.8441 11.8045 85.5755 11.7138C86.307 11.6232 86.9196 11.451 87.4133 11.1972C87.9253 10.9434 88.3185 10.5899 88.5928 10.1366C88.8671 9.6653 89.0042 9.04892 89.0042 8.28752C89.0042 7.58051 88.8671 6.99133 88.5928 6.51999C88.3185 6.04865 87.9436 5.67701 87.4682 5.40508C87.011 5.13315 86.4624 4.9428 85.8224 4.83403C85.2006 4.72526 84.5332 4.67088 83.82 4.67088Z" stroke="#EFFBFF" stroke-width="3"/>
<path d="M22.2676 42.197C20.9327 42.197 19.7166 41.9795 18.6194 41.5444C17.5223 41.1093 16.5805 40.4748 15.7942 39.6409C15.0079 38.807 14.3953 37.7827 13.9564 36.5681C13.5358 35.3353 13.3255 33.9304 13.3255 32.3532C13.3255 30.776 13.5632 29.3801 14.0387 28.1655C14.5324 26.9328 15.1907 25.8994 16.0136 25.0655C16.8365 24.2316 17.7965 23.5971 18.8937 23.162C19.9909 22.7269 21.1613 22.5094 22.4048 22.5094C23.1911 22.5094 23.8951 22.5638 24.5168 22.6725C25.1569 22.7813 25.7055 22.9082 26.1626 23.0532C26.6381 23.1983 27.0221 23.3433 27.3147 23.4883C27.6073 23.6334 27.8084 23.7421 27.9181 23.8146L27.1501 25.9901C26.9855 25.8813 26.7478 25.7635 26.4369 25.6366C26.1261 25.5097 25.7695 25.3828 25.3672 25.2559C24.9831 25.129 24.5534 25.0293 24.078 24.9567C23.6208 24.8661 23.1545 24.8208 22.679 24.8208C21.6733 24.8208 20.7681 24.993 19.9635 25.3374C19.1589 25.6819 18.4732 26.1804 17.9063 26.833C17.3394 27.4857 16.9005 28.2833 16.5896 29.226C16.2971 30.1506 16.1508 31.193 16.1508 32.3532C16.1508 33.4772 16.2788 34.5014 16.5348 35.426C16.8091 36.3505 17.2114 37.1482 17.7417 37.819C18.272 38.4716 18.9303 38.9792 19.7166 39.3418C20.5212 39.7043 21.4539 39.8856 22.5145 39.8856C23.7397 39.8856 24.7546 39.7587 25.5592 39.5049C26.3638 39.2511 26.9672 39.0245 27.3695 38.8251L28.0553 41.0005C27.9273 41.0912 27.6987 41.209 27.3695 41.354C27.0404 41.4809 26.6289 41.6078 26.1352 41.7347C25.6415 41.8616 25.0654 41.9704 24.4071 42.061C23.7488 42.1517 23.0356 42.197 22.2676 42.197Z" stroke="#EFFBFF" stroke-width="3"/>
<path d="M36.8086 42.197C35.5651 42.197 34.4862 42.0067 33.5719 41.626C32.6576 41.2453 31.9078 40.7286 31.3226 40.076C30.7375 39.4052 30.2986 38.6166 30.006 37.7102C29.7317 36.8038 29.5946 35.8248 29.5946 34.7734V22.9445H32.2553V34.4742C32.2553 36.3596 32.6758 37.7283 33.517 38.5804C34.3582 39.4324 35.4554 39.8584 36.8086 39.8584C37.4852 39.8584 38.0978 39.7587 38.6464 39.5593C39.2133 39.3418 39.6979 39.0154 40.1002 38.5804C40.5025 38.1453 40.8133 37.5924 41.0328 36.9216C41.2522 36.2327 41.3619 35.4169 41.3619 34.4742V22.9445H44.0226V34.7734C44.0226 35.8248 43.8763 36.8038 43.5838 37.7102C43.3095 38.6166 42.8706 39.4052 42.2671 40.076C41.682 40.7286 40.9322 41.2453 40.0179 41.626C39.1218 42.0067 38.0521 42.197 36.8086 42.197Z" stroke="#EFFBFF" stroke-width="3"/>
<path d="M60.2741 41.7891C59.8718 41.1184 59.4055 40.366 58.8752 39.5321C58.3632 38.6982 57.8054 37.8371 57.202 36.9488C56.5985 36.0424 55.9676 35.1269 55.3093 34.2023C54.6693 33.2778 54.0293 32.3895 53.3892 31.5374C52.7492 30.6672 52.1275 29.8515 51.524 29.0901C50.9206 28.3287 50.3628 27.6579 49.8508 27.0778V41.7891H47.245V22.9445H49.3571C50.2165 23.8509 51.1309 24.9114 52.1 26.126C53.0875 27.3225 54.0567 28.5643 55.0076 29.8515C55.9768 31.1205 56.882 32.3713 57.7232 33.6041C58.5826 34.8368 59.3049 35.9336 59.8901 36.8944V22.9445H62.4959V41.7891H60.2741Z" stroke="#EFFBFF" stroke-width="3"/>
<path d="M81.4373 32.3532C81.4373 33.9848 81.1812 35.4079 80.6692 36.6225C80.1572 37.819 79.4349 38.816 78.5023 39.6137C77.5697 40.3932 76.4542 40.9824 75.1558 41.3812C73.8575 41.7619 72.4312 41.9523 70.8768 41.9523C70.1088 41.9523 69.2584 41.916 68.3258 41.8435C67.4115 41.7891 66.5795 41.6713 65.8297 41.49V23.2164C66.5795 23.0351 67.4115 22.9173 68.3258 22.8629C69.2584 22.7904 70.1088 22.7541 70.8768 22.7541C72.4312 22.7541 73.8575 22.9535 75.1558 23.3524C76.4542 23.7331 77.5697 24.3222 78.5023 25.1199C79.4349 25.8994 80.1572 26.8965 80.6692 28.1111C81.1812 29.3076 81.4373 30.7216 81.4373 32.3532ZM71.0962 39.6409C73.6198 39.6409 75.5033 39.0064 76.7468 37.7374C77.9903 36.4503 78.612 34.6555 78.612 32.3532C78.612 30.0509 77.9903 28.2652 76.7468 26.9962C75.5033 25.7091 73.6198 25.0655 71.0962 25.0655C70.3465 25.0655 69.7613 25.0746 69.3407 25.0927C68.9384 25.1108 68.655 25.129 68.4904 25.1471V39.5593C68.655 39.5774 68.9384 39.5956 69.3407 39.6137C69.7613 39.6318 70.3465 39.6409 71.0962 39.6409Z" stroke="#EFFBFF" stroke-width="3"/>
<path d="M96.2037 41.7891C95.8928 40.9733 95.6002 40.1757 95.3259 39.3961C95.0516 38.5985 94.7682 37.7918 94.4756 36.976H85.8627L84.1346 41.7891H81.3642C82.0956 39.795 82.7814 37.9549 83.4214 36.269C84.0615 34.5649 84.6832 32.9514 85.2867 31.4286C85.9084 29.9058 86.521 28.4556 87.1244 27.0778C87.7279 25.6819 88.3588 24.3041 89.0171 22.9445H91.4583C92.1167 24.3041 92.7475 25.6819 93.351 27.0778C93.9545 28.4556 94.5579 29.9058 95.1614 31.4286C95.7831 32.9514 96.414 34.5649 97.054 36.269C97.694 37.9549 98.3798 39.795 99.1113 41.7891H96.2037ZM93.7076 34.8006C93.1224 33.2234 92.5372 31.7006 91.9521 30.2322C91.3852 28.7456 90.7909 27.3225 90.1691 25.9629C89.5291 27.3225 88.9165 28.7456 88.3313 30.2322C87.7645 31.7006 87.1976 33.2234 86.6307 34.8006H93.7076Z" stroke="#EFFBFF" stroke-width="3"/>
<path d="M109.619 33.9032C109.912 34.2658 110.278 34.7462 110.716 35.3444C111.174 35.9245 111.64 36.5772 112.115 37.3023C112.591 38.0093 113.057 38.7526 113.514 39.5321C113.99 40.3116 114.392 41.064 114.721 41.7891H111.814C111.448 41.1002 111.046 40.4023 110.607 39.6953C110.186 38.9883 109.756 38.3175 109.317 37.683C108.879 37.0304 108.44 36.4231 108.001 35.8611C107.58 35.2991 107.196 34.8096 106.849 34.3927C106.611 34.4108 106.364 34.4199 106.108 34.4199C105.87 34.4199 105.624 34.4199 105.368 34.4199H102.981V41.7891H100.321V23.2164C101.07 23.0351 101.902 22.9173 102.817 22.8629C103.749 22.7904 104.6 22.7541 105.368 22.7541C108.037 22.7541 110.067 23.2527 111.457 24.2497C112.865 25.2468 113.569 26.7333 113.569 28.7094C113.569 29.9602 113.231 31.0298 112.554 31.9181C111.896 32.8064 110.918 33.4681 109.619 33.9032ZM105.587 25.0655C104.453 25.0655 103.585 25.0927 102.981 25.1471V32.2444H104.874C105.788 32.2444 106.611 32.1991 107.343 32.1085C108.074 32.0178 108.687 31.8456 109.18 31.5918C109.692 31.338 110.086 30.9845 110.36 30.5313C110.634 30.0599 110.771 29.4436 110.771 28.6822C110.771 27.9751 110.634 27.386 110.36 26.9146C110.086 26.4433 109.711 26.0716 109.235 25.7997C108.778 25.5278 108.229 25.3374 107.589 25.2287C106.968 25.1199 106.3 25.0655 105.587 25.0655Z" stroke="#EFFBFF" stroke-width="3"/>
<path d="M116.2 22.9445H118.86V41.7891H116.2V22.9445Z" stroke="#EFFBFF" stroke-width="3"/>
<defs>
<clipPath id="clip0_124_200">
<rect width="19.5009" height="19.3324" fill="white" transform="translate(99.499 1)"/>
</clipPath>
</defs>
</svg>
