<svg xmlns="http://www.w3.org/2000/svg" width="121" height="44" fill="none"><g fill="#EFFBFF" clip-path="url(#a)"><path d="m105.668 16.015-6.169-5.348 6.169-5.348 1.054 1.194-4.785 4.154 4.785 4.154-1.054 1.194ZM112.83 16.015l-1.053-1.194 4.785-4.154-4.785-4.154 1.053-1.194 6.17 5.348-6.17 5.348Z"/></g><path fill="#EFFBFF" d="M13.274 15.33c0 .907-.1 1.75-.302 2.53a4.991 4.991 0 0 1-1.015 2.066c-.475.58-1.125 1.043-1.948 1.387-.804.326-1.819.49-3.044.49a8.602 8.602 0 0 1-1.728-.164 9.236 9.236 0 0 1-1.4-.353c-.42-.163-.786-.327-1.096-.49A4.624 4.624 0 0 1 2 20.28l1.042-2.094c.384.272.878.562 1.482.87.621.29 1.39.435 2.304.435 1.316 0 2.276-.326 2.88-.979.603-.67.905-1.813.905-3.426V2.55h2.66v12.78ZM23.56 21.802c-1.244 0-2.323-.19-3.237-.57-.914-.381-1.664-.898-2.25-1.55a6.667 6.667 0 0 1-1.316-2.366 10.095 10.095 0 0 1-.411-2.937V2.549h2.66v11.53c0 1.886.421 3.255 1.262 4.107.841.852 1.939 1.278 3.292 1.278.676 0 1.289-.1 1.838-.3a3.81 3.81 0 0 0 1.453-.978c.403-.435.713-.988.933-1.659.22-.689.33-1.505.33-2.447V2.55h2.66v11.829c0 1.051-.146 2.03-.439 2.937a6.148 6.148 0 0 1-1.317 2.365c-.585.653-1.335 1.17-2.249 1.55-.896.381-1.966.571-3.21.571ZM47.025 21.395c-.402-.671-.868-1.424-1.399-2.258a66.957 66.957 0 0 0-1.673-2.583 106.229 106.229 0 0 0-1.893-2.746 84.727 84.727 0 0 0-1.92-2.665 85.618 85.618 0 0 0-1.865-2.448 49.88 49.88 0 0 0-1.673-2.012v14.712h-2.606V2.55h2.112a49.69 49.69 0 0 1 2.743 3.181 88.058 88.058 0 0 1 2.908 3.726 86.76 86.76 0 0 1 2.715 3.752 64.84 64.84 0 0 1 2.167 3.29V2.55h2.606v18.846h-2.222ZM52.58 2.55h2.662v18.845H52.58V2.55ZM57.808 11.959c0-1.614.237-3.037.713-4.27.494-1.232 1.152-2.257 1.975-3.073a8.252 8.252 0 0 1 2.907-1.876 10.022 10.022 0 0 1 3.539-.625c1.225 0 2.377.208 3.456.625a7.985 7.985 0 0 1 2.88 1.876c.823.816 1.472 1.84 1.948 3.073.493 1.233.74 2.656.74 4.27 0 1.613-.247 3.036-.74 4.269-.476 1.233-1.125 2.266-1.948 3.1a8.16 8.16 0 0 1-2.88 1.849 9.503 9.503 0 0 1-3.456.625c-1.244 0-2.423-.208-3.538-.625a8.439 8.439 0 0 1-2.908-1.85c-.823-.833-1.481-1.866-1.975-3.1-.476-1.232-.713-2.655-.713-4.268Zm2.798 0c0 1.142.146 2.184.438 3.127.293.924.705 1.713 1.235 2.365a5.768 5.768 0 0 0 1.975 1.523c.786.345 1.664.517 2.633.517.97 0 1.838-.172 2.606-.517a5.505 5.505 0 0 0 1.947-1.523c.549-.652.97-1.44 1.262-2.365.293-.943.439-1.985.439-3.127 0-1.143-.146-2.176-.439-3.1-.292-.943-.713-1.74-1.262-2.393a5.237 5.237 0 0 0-1.947-1.496c-.768-.363-1.637-.544-2.606-.544-.97 0-1.847.181-2.633.544a5.48 5.48 0 0 0-1.975 1.496c-.53.652-.942 1.45-1.235 2.393-.292.924-.438 1.957-.438 3.1ZM87.852 13.509c.293.362.658.842 1.097 1.44.457.58.924 1.234 1.4 1.959.475.707.941 1.45 1.398 2.23.476.779.878 1.531 1.207 2.256h-2.907a35.918 35.918 0 0 0-1.207-2.093c-.42-.707-.85-1.378-1.29-2.013a31.698 31.698 0 0 0-1.316-1.822 36.316 36.316 0 0 0-1.152-1.468 9.708 9.708 0 0 1-.74.027h-3.128v7.37h-2.66V2.822c.75-.182 1.581-.3 2.496-.354a33.142 33.142 0 0 1 2.55-.109c2.67 0 4.7.499 6.09 1.496 1.408.997 2.112 2.484 2.112 4.46 0 1.25-.338 2.32-1.015 3.209-.658.888-1.637 1.55-2.935 1.985ZM83.82 4.67c-1.134 0-2.002.027-2.606.081v7.098h1.893c.914 0 1.737-.045 2.469-.136.731-.09 1.344-.263 1.837-.517a2.786 2.786 0 0 0 1.18-1.06c.274-.472.411-1.088.411-1.85 0-.706-.137-1.296-.411-1.767a3.005 3.005 0 0 0-1.125-1.115c-.457-.272-1.006-.462-1.646-.571a11.626 11.626 0 0 0-2.002-.163ZM22.268 42.197c-1.335 0-2.551-.218-3.649-.653a7.763 7.763 0 0 1-2.825-1.903c-.786-.834-1.399-1.858-1.838-3.073-.42-1.233-.63-2.638-.63-4.215s.237-2.973.713-4.188c.493-1.232 1.152-2.266 1.975-3.1a8.3 8.3 0 0 1 2.88-1.903 9.437 9.437 0 0 1 3.51-.653c.787 0 1.491.055 2.113.163.64.11 1.189.236 1.646.381.475.145.86.29 1.152.435.292.145.493.254.603.327l-.768 2.175a4.267 4.267 0 0 0-.713-.353c-.31-.127-.668-.254-1.07-.381a7.939 7.939 0 0 0-1.289-.3 7.18 7.18 0 0 0-1.399-.135c-1.006 0-1.91.172-2.715.516a5.616 5.616 0 0 0-2.058 1.496c-.567.653-1.005 1.45-1.316 2.393-.293.925-.44 1.967-.44 3.127 0 1.124.129 2.148.385 3.073.274.924.676 1.722 1.207 2.393a5.443 5.443 0 0 0 1.975 1.523c.804.362 1.737.544 2.798.544 1.225 0 2.24-.127 3.044-.381.805-.254 1.408-.48 1.81-.68L28.055 41c-.128.091-.356.209-.686.354-.329.127-.74.254-1.234.38-.494.128-1.07.236-1.728.327-.658.09-1.371.136-2.14.136ZM36.809 42.197c-1.244 0-2.323-.19-3.237-.571-.914-.38-1.664-.897-2.25-1.55a6.669 6.669 0 0 1-1.316-2.366 10.095 10.095 0 0 1-.411-2.937V22.944h2.66v11.53c0 1.886.42 3.254 1.262 4.106.841.852 1.938 1.278 3.292 1.278.676 0 1.289-.1 1.837-.299a3.81 3.81 0 0 0 1.454-.979c.402-.435.713-.988.933-1.658.22-.69.329-1.505.329-2.448v-11.53h2.66v11.83c0 1.05-.146 2.03-.438 2.936a6.15 6.15 0 0 1-1.317 2.366c-.585.653-1.335 1.17-2.25 1.55-.895.38-1.965.571-3.208.571ZM60.274 41.79c-.402-.672-.868-1.424-1.399-2.258a66.957 66.957 0 0 0-1.673-2.583 106.575 106.575 0 0 0-1.893-2.747 84.798 84.798 0 0 0-1.92-2.665 85.43 85.43 0 0 0-1.865-2.447 49.876 49.876 0 0 0-1.673-2.012v14.711h-2.606V22.944h2.112c.86.907 1.774 1.967 2.743 3.182a87.948 87.948 0 0 1 2.908 3.726 86.711 86.711 0 0 1 2.715 3.752 64.797 64.797 0 0 1 2.167 3.29v-13.95h2.606V41.79h-2.222ZM81.437 32.353c0 1.632-.256 3.055-.768 4.27-.512 1.196-1.234 2.193-2.167 2.99-.932.78-2.048 1.37-3.346 1.768-1.299.38-2.725.571-4.28.571a33.15 33.15 0 0 1-2.55-.108 14.247 14.247 0 0 1-2.496-.354V23.216c.75-.18 1.582-.299 2.496-.353a33.15 33.15 0 0 1 2.55-.109c1.555 0 2.981.2 4.28.598 1.298.381 2.414.97 3.346 1.768.933.78 1.655 1.776 2.167 2.991.512 1.197.768 2.61.768 4.242Zm-10.34 7.288c2.523 0 4.406-.635 5.65-1.904 1.243-1.287 1.865-3.081 1.865-5.384 0-2.302-.622-4.088-1.865-5.357-1.244-1.287-3.127-1.93-5.65-1.93-.75 0-1.336.009-1.756.027-.403.018-.686.036-.85.054V39.56c.164.018.447.037.85.055.42.018 1.006.027 1.755.027ZM96.204 41.79a98.899 98.899 0 0 1-.878-2.394 195.26 195.26 0 0 0-.85-2.42h-8.613l-1.728 4.813h-2.77a525.383 525.383 0 0 1 2.056-5.52c.64-1.704 1.262-3.318 1.866-4.84a187.864 187.864 0 0 1 1.837-4.351 106.095 106.095 0 0 1 1.893-4.133h2.441c.659 1.36 1.29 2.737 1.893 4.133a132.834 132.834 0 0 1 1.81 4.35 183.726 183.726 0 0 1 1.893 4.841c.64 1.686 1.326 3.526 2.057 5.52h-2.907Zm-2.496-6.99c-.586-1.577-1.17-3.1-1.756-4.568a71.64 71.64 0 0 0-1.783-4.27 71.623 71.623 0 0 0-1.838 4.27 209.152 209.152 0 0 0-1.7 4.569h7.077ZM109.619 33.903c.293.363.659.843 1.097 1.441.458.58.924 1.233 1.399 1.958.476.707.942 1.45 1.399 2.23.476.78.878 1.532 1.207 2.257h-2.907a35.92 35.92 0 0 0-1.207-2.094 35.087 35.087 0 0 0-1.29-2.012 31.252 31.252 0 0 0-1.316-1.822 36.9 36.9 0 0 0-1.152-1.468 9.776 9.776 0 0 1-.741.027h-3.127v7.37h-2.66V23.215c.749-.18 1.581-.299 2.496-.353a33.138 33.138 0 0 1 2.551-.109c2.669 0 4.699.499 6.089 1.496 1.408.997 2.112 2.483 2.112 4.46 0 1.25-.338 2.32-1.015 3.208-.658.888-1.636 1.55-2.935 1.985Zm-4.032-8.837c-1.134 0-2.002.027-2.606.081v7.097h1.893c.914 0 1.737-.045 2.469-.136.731-.09 1.344-.262 1.837-.516a2.786 2.786 0 0 0 1.18-1.06c.274-.472.411-1.088.411-1.85 0-.707-.137-1.296-.411-1.767a3 3 0 0 0-1.125-1.115c-.457-.272-1.006-.463-1.646-.571a11.613 11.613 0 0 0-2.002-.163ZM116.2 22.945h2.66v18.844h-2.66V22.944Z"/><path stroke="#EFFBFF" stroke-width="3" d="M13.274 15.33c0 .907-.1 1.75-.302 2.53a4.991 4.991 0 0 1-1.015 2.066c-.475.58-1.125 1.043-1.948 1.387-.804.326-1.819.49-3.044.49a8.602 8.602 0 0 1-1.728-.164 9.236 9.236 0 0 1-1.4-.353c-.42-.163-.786-.327-1.096-.49A4.624 4.624 0 0 1 2 20.28l1.042-2.094c.384.272.878.562 1.482.87.621.29 1.39.435 2.304.435 1.316 0 2.276-.326 2.88-.979.603-.67.905-1.813.905-3.426V2.55h2.66v12.78ZM23.56 21.802c-1.244 0-2.323-.19-3.237-.57-.914-.381-1.664-.898-2.25-1.55a6.667 6.667 0 0 1-1.316-2.366 10.095 10.095 0 0 1-.411-2.937V2.549h2.66v11.53c0 1.886.421 3.255 1.262 4.107.841.852 1.939 1.278 3.292 1.278.676 0 1.289-.1 1.838-.3a3.81 3.81 0 0 0 1.453-.978c.403-.435.713-.988.933-1.659.22-.689.33-1.505.33-2.447V2.55h2.66v11.829c0 1.051-.146 2.03-.439 2.937a6.148 6.148 0 0 1-1.317 2.365c-.585.653-1.335 1.17-2.249 1.55-.896.381-1.966.571-3.21.571ZM47.025 21.395c-.402-.671-.868-1.424-1.399-2.258a66.957 66.957 0 0 0-1.673-2.583 106.229 106.229 0 0 0-1.893-2.746 84.727 84.727 0 0 0-1.92-2.665 85.618 85.618 0 0 0-1.865-2.448 49.88 49.88 0 0 0-1.673-2.012v14.712h-2.606V2.55h2.112a49.69 49.69 0 0 1 2.743 3.181 88.058 88.058 0 0 1 2.908 3.726 86.76 86.76 0 0 1 2.715 3.752 64.84 64.84 0 0 1 2.167 3.29V2.55h2.606v18.846h-2.222ZM52.58 2.55h2.662v18.845H52.58V2.55ZM57.808 11.959c0-1.614.237-3.037.713-4.27.494-1.232 1.152-2.257 1.975-3.073a8.252 8.252 0 0 1 2.907-1.876 10.022 10.022 0 0 1 3.539-.625c1.225 0 2.377.208 3.456.625a7.985 7.985 0 0 1 2.88 1.876c.823.816 1.472 1.84 1.948 3.073.493 1.233.74 2.656.74 4.27 0 1.613-.247 3.036-.74 4.269-.476 1.233-1.125 2.266-1.948 3.1a8.16 8.16 0 0 1-2.88 1.849 9.503 9.503 0 0 1-3.456.625c-1.244 0-2.423-.208-3.538-.625a8.439 8.439 0 0 1-2.908-1.85c-.823-.833-1.481-1.866-1.975-3.1-.476-1.232-.713-2.655-.713-4.268Zm2.798 0c0 1.142.146 2.184.438 3.127.293.924.705 1.713 1.235 2.365a5.768 5.768 0 0 0 1.975 1.523c.786.345 1.664.517 2.633.517.97 0 1.838-.172 2.606-.517a5.505 5.505 0 0 0 1.947-1.523c.549-.652.97-1.44 1.262-2.365.293-.943.439-1.985.439-3.127 0-1.143-.146-2.176-.439-3.1-.292-.943-.713-1.74-1.262-2.393a5.237 5.237 0 0 0-1.947-1.496c-.768-.363-1.637-.544-2.606-.544-.97 0-1.847.181-2.633.544a5.48 5.48 0 0 0-1.975 1.496c-.53.652-.942 1.45-1.235 2.393-.292.924-.438 1.957-.438 3.1ZM87.852 13.509c.293.362.658.842 1.097 1.44.457.58.924 1.234 1.4 1.959.475.707.941 1.45 1.398 2.23.476.779.878 1.531 1.207 2.256h-2.907a35.918 35.918 0 0 0-1.207-2.093c-.42-.707-.85-1.378-1.29-2.013a31.698 31.698 0 0 0-1.316-1.822 36.316 36.316 0 0 0-1.152-1.468 9.708 9.708 0 0 1-.74.027h-3.128v7.37h-2.66V2.822c.75-.182 1.581-.3 2.496-.354a33.142 33.142 0 0 1 2.55-.109c2.67 0 4.7.499 6.09 1.496 1.408.997 2.112 2.484 2.112 4.46 0 1.25-.338 2.32-1.015 3.209-.658.888-1.637 1.55-2.935 1.985ZM83.82 4.67c-1.134 0-2.002.027-2.606.081v7.098h1.893c.914 0 1.737-.045 2.469-.136.731-.09 1.344-.263 1.837-.517a2.786 2.786 0 0 0 1.18-1.06c.274-.472.411-1.088.411-1.85 0-.706-.137-1.296-.411-1.767a3.005 3.005 0 0 0-1.125-1.115c-.457-.272-1.006-.462-1.646-.571a11.626 11.626 0 0 0-2.002-.163ZM22.268 42.197c-1.335 0-2.551-.218-3.649-.653a7.763 7.763 0 0 1-2.825-1.903c-.786-.834-1.399-1.858-1.838-3.073-.42-1.233-.63-2.638-.63-4.215s.237-2.973.713-4.188c.493-1.232 1.152-2.266 1.975-3.1a8.3 8.3 0 0 1 2.88-1.903 9.437 9.437 0 0 1 3.51-.653c.787 0 1.491.055 2.113.163.64.11 1.189.236 1.646.381.475.145.86.29 1.152.435.292.145.493.254.603.327l-.768 2.175a4.267 4.267 0 0 0-.713-.353c-.31-.127-.668-.254-1.07-.381a7.939 7.939 0 0 0-1.289-.3 7.18 7.18 0 0 0-1.399-.135c-1.006 0-1.91.172-2.715.516a5.616 5.616 0 0 0-2.058 1.496c-.567.653-1.005 1.45-1.316 2.393-.293.925-.44 1.967-.44 3.127 0 1.124.129 2.148.385 3.073.274.924.676 1.722 1.207 2.393a5.443 5.443 0 0 0 1.975 1.523c.804.362 1.737.544 2.798.544 1.225 0 2.24-.127 3.044-.381.805-.254 1.408-.48 1.81-.68L28.055 41c-.128.091-.356.209-.686.354-.329.127-.74.254-1.234.38-.494.128-1.07.236-1.728.327-.658.09-1.371.136-2.14.136ZM36.809 42.197c-1.244 0-2.323-.19-3.237-.571-.914-.38-1.664-.897-2.25-1.55a6.669 6.669 0 0 1-1.316-2.366 10.095 10.095 0 0 1-.411-2.937V22.944h2.66v11.53c0 1.886.42 3.254 1.262 4.106.841.852 1.938 1.278 3.292 1.278.676 0 1.289-.1 1.837-.299a3.81 3.81 0 0 0 1.454-.979c.402-.435.713-.988.933-1.658.22-.69.329-1.505.329-2.448v-11.53h2.66v11.83c0 1.05-.146 2.03-.438 2.936a6.15 6.15 0 0 1-1.317 2.366c-.585.653-1.335 1.17-2.25 1.55-.895.38-1.965.571-3.208.571ZM60.274 41.79c-.402-.672-.868-1.424-1.399-2.258a66.957 66.957 0 0 0-1.673-2.583 106.575 106.575 0 0 0-1.893-2.747 84.798 84.798 0 0 0-1.92-2.665 85.43 85.43 0 0 0-1.865-2.447 49.876 49.876 0 0 0-1.673-2.012v14.711h-2.606V22.944h2.112c.86.907 1.774 1.967 2.743 3.182a87.948 87.948 0 0 1 2.908 3.726 86.711 86.711 0 0 1 2.715 3.752 64.797 64.797 0 0 1 2.167 3.29v-13.95h2.606V41.79h-2.222ZM81.437 32.353c0 1.632-.256 3.055-.768 4.27-.512 1.196-1.234 2.193-2.167 2.99-.932.78-2.048 1.37-3.346 1.768-1.299.38-2.725.571-4.28.571a33.15 33.15 0 0 1-2.55-.108 14.247 14.247 0 0 1-2.496-.354V23.216c.75-.18 1.582-.299 2.496-.353a33.15 33.15 0 0 1 2.55-.109c1.555 0 2.981.2 4.28.598 1.298.381 2.414.97 3.346 1.768.933.78 1.655 1.776 2.167 2.991.512 1.197.768 2.61.768 4.242Zm-10.34 7.288c2.523 0 4.406-.635 5.65-1.904 1.243-1.287 1.865-3.081 1.865-5.384 0-2.302-.622-4.088-1.865-5.357-1.244-1.287-3.127-1.93-5.65-1.93-.75 0-1.336.009-1.756.027-.403.018-.686.036-.85.054V39.56c.164.018.447.037.85.055.42.018 1.006.027 1.755.027ZM96.204 41.79a98.899 98.899 0 0 1-.878-2.394 195.26 195.26 0 0 0-.85-2.42h-8.613l-1.728 4.813h-2.77a525.383 525.383 0 0 1 2.056-5.52c.64-1.704 1.262-3.318 1.866-4.84a187.864 187.864 0 0 1 1.837-4.351 106.095 106.095 0 0 1 1.893-4.133h2.441c.659 1.36 1.29 2.737 1.893 4.133a132.834 132.834 0 0 1 1.81 4.35 183.726 183.726 0 0 1 1.893 4.841c.64 1.686 1.326 3.526 2.057 5.52h-2.907Zm-2.496-6.99c-.586-1.577-1.17-3.1-1.756-4.568a71.64 71.64 0 0 0-1.783-4.27 71.623 71.623 0 0 0-1.838 4.27 209.152 209.152 0 0 0-1.7 4.569h7.077ZM109.619 33.903c.293.363.659.843 1.097 1.441.458.58.924 1.233 1.399 1.958.476.707.942 1.45 1.399 2.23.476.78.878 1.532 1.207 2.257h-2.907a35.92 35.92 0 0 0-1.207-2.094 35.087 35.087 0 0 0-1.29-2.012 31.252 31.252 0 0 0-1.316-1.822 36.9 36.9 0 0 0-1.152-1.468 9.776 9.776 0 0 1-.741.027h-3.127v7.37h-2.66V23.215c.749-.18 1.581-.299 2.496-.353a33.138 33.138 0 0 1 2.551-.109c2.669 0 4.699.499 6.089 1.496 1.408.997 2.112 2.483 2.112 4.46 0 1.25-.338 2.32-1.015 3.208-.658.888-1.636 1.55-2.935 1.985Zm-4.032-8.837c-1.134 0-2.002.027-2.606.081v7.097h1.893c.914 0 1.737-.045 2.469-.136.731-.09 1.344-.262 1.837-.516a2.786 2.786 0 0 0 1.18-1.06c.274-.472.411-1.088.411-1.85 0-.707-.137-1.296-.411-1.767a3 3 0 0 0-1.125-1.115c-.457-.272-1.006-.463-1.646-.571a11.613 11.613 0 0 0-2.002-.163ZM116.2 22.945h2.66v18.844h-2.66V22.944Z"/><defs><clipPath id="a"><path fill="#fff" d="M99.499 1H119v19.332H99.499z"/></clipPath></defs></svg>