<svg xmlns="http://www.w3.org/2000/svg" width="55" height="56" fill="none"><path fill="#EAEDF0" fill-rule="evenodd" d="M34.375 6.886c0-.95.77-1.721 1.719-1.721h12.031c.95 0 1.719.77 1.719 1.721v12.051c0 .95-.77 1.722-1.719 1.722a1.72 1.72 0 0 1-1.719-1.722v-7.895L25.278 32.205a1.717 1.717 0 0 1-2.43 0 1.723 1.723 0 0 1 0-2.434L43.975 8.608h-7.882a1.72 1.72 0 0 1-1.719-1.722Zm-23.203 8.608c-.684 0-1.34.272-1.823.756a2.584 2.584 0 0 0-.755 1.826V43.9a2.584 2.584 0 0 0 2.578 2.582h25.781a2.574 2.574 0 0 0 2.382-1.594c.13-.313.196-.65.196-.988V24.102c0-.951.77-1.722 1.719-1.722.95 0 1.719.771 1.719 1.722V43.9a6.035 6.035 0 0 1-1.762 4.26 6.014 6.014 0 0 1-4.254 1.765H11.172a6.01 6.01 0 0 1-4.254-1.765 6.03 6.03 0 0 1-1.762-4.26V18.076a6.03 6.03 0 0 1 1.762-4.26 6.01 6.01 0 0 1 4.254-1.765h17.99c.95 0 1.72.77 1.72 1.722 0 .95-.77 1.721-1.72 1.721h-17.99Z" clip-rule="evenodd"/></svg>