<svg width="37" height="37" viewBox="0 0 37 37" fill="none" xmlns="http://www.w3.org/2000/svg">
<path fill-rule="evenodd" clip-rule="evenodd" d="M22.5979 4.50733C22.5979 3.885 23.1016 3.38049 23.7229 3.38049H31.5979C32.2192 3.38049 32.7229 3.885 32.7229 4.50733V12.3952C32.7229 13.0175 32.2192 13.522 31.5979 13.522C30.9766 13.522 30.4729 13.0175 30.4729 12.3952V7.22776L16.6434 21.0799C16.2041 21.5199 15.4917 21.5199 15.0524 21.0799C14.6131 20.6398 14.6131 19.9263 15.0524 19.4863L28.8819 5.63417H23.7229C23.1016 5.63417 22.5979 5.12967 22.5979 4.50733ZM7.4104 10.1415C6.96285 10.1415 6.53363 10.3196 6.21716 10.6366C5.90069 10.9536 5.7229 11.3835 5.7229 11.8318V28.7344C5.7229 29.1826 5.90069 29.6126 6.21716 29.9295C6.53363 30.2465 6.96285 30.4246 7.4104 30.4246H24.2854C24.507 30.4246 24.7264 30.3809 24.9312 30.2959C25.1359 30.211 25.3219 30.0865 25.4786 29.9295C25.6353 29.7726 25.7596 29.5863 25.8444 29.3812C25.9293 29.1761 25.9729 28.9563 25.9729 28.7344V15.7757C25.9729 15.1534 26.4766 14.6489 27.0979 14.6489C27.7192 14.6489 28.2229 15.1534 28.2229 15.7757V28.7344C28.2229 29.2523 28.1211 29.7651 27.9232 30.2436C27.7253 30.7221 27.4353 31.1569 27.0696 31.5231C26.704 31.8894 26.2699 32.1799 25.7922 32.3781C25.3145 32.5763 24.8025 32.6783 24.2854 32.6783H7.4104C6.36611 32.6783 5.36459 32.2628 4.62617 31.5231C3.88774 30.7835 3.4729 29.7803 3.4729 28.7344V11.8318C3.4729 10.7858 3.88774 9.78263 4.62617 9.043C5.36459 8.30337 6.36611 7.88785 7.4104 7.88785H19.1863C19.8077 7.88785 20.3113 8.39235 20.3113 9.01468C20.3113 9.63702 19.8077 10.1415 19.1863 10.1415H7.4104Z" fill="#009DF8"/>
</svg>
