<svg width="128" height="128" viewBox="0 0 128 128" fill="none" xmlns="http://www.w3.org/2000/svg">
<rect width="128" height="128" rx="20" fill="#0E0E14"/>
<g clip-path="url(#clip0_120_114)">
<path d="M108.668 58.0146L102.499 52.6668L108.668 47.3191L109.722 48.5126L104.937 52.6668L109.722 56.8211L108.668 58.0146Z" fill="#EFFBFF"/>
<path d="M115.83 58.0146L114.777 56.8211L119.562 52.6668L114.777 48.5126L115.83 47.3191L122 52.6668L115.83 58.0146Z" fill="#EFFBFF"/>
</g>
<path d="M16.2736 57.3305C16.2736 58.2369 16.1731 59.0799 15.9719 59.8594C15.789 60.6389 15.4507 61.3278 14.957 61.9261C14.4816 62.5062 13.8324 62.9685 13.0095 63.3129C12.2049 63.6392 11.19 63.8024 9.96479 63.8024C9.34305 63.8024 8.76702 63.748 8.23671 63.6392C7.72469 63.5486 7.25838 63.4307 6.83779 63.2857C6.4172 63.1226 6.05147 62.9594 5.7406 62.7962C5.42973 62.615 5.18287 62.4427 5 62.2796L6.04233 60.1857C6.42635 60.4577 6.92008 60.7477 7.52354 61.0559C8.14528 61.346 8.91331 61.491 9.82764 61.491C11.1443 61.491 12.1043 61.1647 12.7078 60.512C13.3112 59.8413 13.6129 58.6992 13.6129 57.0857V44.5498H16.2736V57.3305Z" fill="#EFFBFF"/>
<path d="M26.5598 63.8024C25.3163 63.8024 24.2374 63.612 23.3231 63.2313C22.4088 62.8506 21.659 62.334 21.0738 61.6813C20.4887 61.0106 20.0498 60.222 19.7572 59.3156C19.4829 58.4091 19.3458 57.4302 19.3458 56.3787V44.5498H22.0065V56.0796C22.0065 57.965 22.427 59.3337 23.2682 60.1857C24.1094 61.0378 25.2066 61.4638 26.5598 61.4638C27.2364 61.4638 27.849 61.3641 28.3976 61.1647C28.9645 60.9471 29.4491 60.6208 29.8514 60.1857C30.2537 59.7506 30.5645 59.1977 30.784 58.527C31.0034 57.8381 31.1131 57.0223 31.1131 56.0796V44.5498H33.7738V56.3787C33.7738 57.4302 33.6275 58.4091 33.335 59.3156C33.0607 60.222 32.6218 61.0106 32.0183 61.6813C31.4332 62.334 30.6834 62.8506 29.7691 63.2313C28.873 63.612 27.8033 63.8024 26.5598 63.8024Z" fill="#EFFBFF"/>
<path d="M50.0253 63.3945C49.623 62.7237 49.1567 61.9714 48.6264 61.1375C48.1144 60.3036 47.5566 59.4425 46.9532 58.5542C46.3497 57.6477 45.7188 56.7322 45.0605 55.8077C44.4205 54.8831 43.7805 53.9948 43.1405 53.1428C42.5004 52.2726 41.8787 51.4568 41.2752 50.6954C40.6718 49.934 40.114 49.2633 39.602 48.6831V63.3945H36.9962V44.5498H39.1083C39.9677 45.4563 40.8821 46.5168 41.8513 47.7314C42.8387 48.9279 43.8079 50.1697 44.7588 51.4568C45.728 52.7258 46.6332 53.9767 47.4744 55.2094C48.3338 56.4422 49.0561 57.539 49.6413 58.4998V44.5498H52.2471V63.3945H50.0253Z" fill="#EFFBFF"/>
<path d="M55.5809 44.5498H58.2416V63.3945H55.5809V44.5498Z" fill="#EFFBFF"/>
<path d="M60.8078 53.9586C60.8078 52.3451 61.0455 50.922 61.521 49.6893C62.0147 48.4565 62.673 47.4323 63.4959 46.6165C64.3371 45.7826 65.3063 45.1571 66.4035 44.7402C67.5189 44.3232 68.6984 44.1147 69.9419 44.1147C71.1671 44.1147 72.3192 44.3232 73.3981 44.7402C74.4953 45.1571 75.4553 45.7826 76.2782 46.6165C77.1011 47.4323 77.7503 48.4565 78.2257 49.6893C78.7194 50.922 78.9663 52.3451 78.9663 53.9586C78.9663 55.572 78.7194 56.9951 78.2257 58.2278C77.7503 59.4606 77.1011 60.4939 76.2782 61.3278C75.4553 62.1436 74.4953 62.76 73.3981 63.1769C72.3192 63.5939 71.1671 63.8024 69.9419 63.8024C68.6984 63.8024 67.5189 63.5939 66.4035 63.1769C65.3063 62.76 64.3371 62.1436 63.4959 61.3278C62.673 60.4939 62.0147 59.4606 61.521 58.2278C61.0455 56.9951 60.8078 55.572 60.8078 53.9586ZM63.6056 53.9586C63.6056 55.1007 63.7519 56.1431 64.0445 57.0857C64.3371 58.0103 64.7485 58.7989 65.2789 59.4515C65.8274 60.1041 66.4858 60.6117 67.2538 60.9743C68.0401 61.3188 68.9179 61.491 69.8871 61.491C70.8562 61.491 71.7248 61.3188 72.4929 60.9743C73.2609 60.6117 73.9101 60.1041 74.4404 59.4515C74.989 58.7989 75.4096 58.0103 75.7022 57.0857C75.9947 56.1431 76.141 55.1007 76.141 53.9586C76.141 52.8165 75.9947 51.7831 75.7022 50.8586C75.4096 49.9159 74.989 49.1182 74.4404 48.4656C73.9101 47.813 73.2609 47.3144 72.4929 46.97C71.7248 46.6074 70.8562 46.4261 69.8871 46.4261C68.9179 46.4261 68.0401 46.6074 67.2538 46.97C66.4858 47.3144 65.8274 47.813 65.2789 48.4656C64.7485 49.1182 64.3371 49.9159 64.0445 50.8586C63.7519 51.7831 63.6056 52.8165 63.6056 53.9586Z" fill="#EFFBFF"/>
<path d="M90.8522 55.5086C91.1448 55.8711 91.5105 56.3515 91.9494 56.9498C92.4065 57.5299 92.8728 58.1825 93.3483 58.9077C93.8237 59.6147 94.2901 60.3579 94.7472 61.1375C95.2227 61.917 95.625 62.6693 95.9541 63.3945H93.0466C92.6808 62.7056 92.2785 62.0076 91.8397 61.3006C91.4191 60.5936 90.9893 59.9229 90.5505 59.2884C90.1116 58.6357 89.6727 58.0284 89.2338 57.4664C88.8132 56.9045 88.4292 56.415 88.0818 55.998C87.8441 56.0162 87.5972 56.0252 87.3412 56.0252C87.1034 56.0252 86.8566 56.0252 86.6006 56.0252H84.2142V63.3945H81.5535V44.8218C82.3032 44.6405 83.1353 44.5226 84.0496 44.4683C84.9822 44.3957 85.8325 44.3595 86.6006 44.3595C89.2704 44.3595 91.3002 44.858 92.69 45.8551C94.098 46.8522 94.8021 48.3387 94.8021 50.3147C94.8021 51.5656 94.4638 52.6352 93.7872 53.5235C93.1289 54.4118 92.1505 55.0735 90.8522 55.5086ZM86.82 46.6709C85.6862 46.6709 84.8176 46.6981 84.2142 46.7525V53.8498H86.1068C87.0212 53.8498 87.8441 53.8045 88.5755 53.7138C89.307 53.6232 89.9196 53.451 90.4133 53.1972C90.9253 52.9434 91.3185 52.5899 91.5928 52.1366C91.8671 51.6653 92.0042 51.0489 92.0042 50.2875C92.0042 49.5805 91.8671 48.9913 91.5928 48.52C91.3185 48.0486 90.9436 47.677 90.4682 47.4051C90.011 47.1332 89.4624 46.9428 88.8224 46.834C88.2006 46.7253 87.5332 46.6709 86.82 46.6709Z" fill="#EFFBFF"/>
<path d="M25.2676 84.197C23.9327 84.197 22.7166 83.9795 21.6194 83.5444C20.5223 83.1093 19.5805 82.4748 18.7942 81.6409C18.0079 80.807 17.3953 79.7827 16.9564 78.5681C16.5358 77.3353 16.3255 75.9304 16.3255 74.3532C16.3255 72.776 16.5632 71.3801 17.0387 70.1655C17.5324 68.9328 18.1907 67.8994 19.0136 67.0655C19.8365 66.2316 20.7965 65.5971 21.8937 65.162C22.9909 64.7269 24.1613 64.5094 25.4048 64.5094C26.1911 64.5094 26.8951 64.5638 27.5168 64.6725C28.1569 64.7813 28.7055 64.9082 29.1626 65.0532C29.6381 65.1983 30.0221 65.3433 30.3147 65.4883C30.6073 65.6334 30.8084 65.7421 30.9181 65.8146L30.1501 67.9901C29.9855 67.8813 29.7478 67.7635 29.4369 67.6366C29.1261 67.5097 28.7695 67.3828 28.3672 67.2559C27.9831 67.129 27.5534 67.0293 27.078 66.9567C26.6208 66.8661 26.1545 66.8208 25.679 66.8208C24.6733 66.8208 23.7681 66.993 22.9635 67.3374C22.1589 67.6819 21.4732 68.1804 20.9063 68.833C20.3394 69.4857 19.9005 70.2833 19.5896 71.226C19.2971 72.1506 19.1508 73.193 19.1508 74.3532C19.1508 75.4772 19.2788 76.5014 19.5348 77.426C19.8091 78.3505 20.2114 79.1482 20.7417 79.819C21.272 80.4716 21.9303 80.9792 22.7166 81.3418C23.5212 81.7043 24.4539 81.8856 25.5145 81.8856C26.7397 81.8856 27.7546 81.7587 28.5592 81.5049C29.3638 81.2511 29.9672 81.0245 30.3695 80.8251L31.0553 83.0005C30.9273 83.0912 30.6987 83.209 30.3695 83.354C30.0404 83.4809 29.6289 83.6078 29.1352 83.7347C28.6415 83.8616 28.0654 83.9704 27.4071 84.061C26.7488 84.1517 26.0356 84.197 25.2676 84.197Z" fill="#EFFBFF"/>
<path d="M39.8086 84.197C38.5651 84.197 37.4862 84.0067 36.5719 83.626C35.6576 83.2453 34.9078 82.7286 34.3226 82.076C33.7375 81.4052 33.2986 80.6166 33.006 79.7102C32.7317 78.8038 32.5946 77.8248 32.5946 76.7734V64.9445H35.2553V76.4742C35.2553 78.3596 35.6758 79.7283 36.517 80.5804C37.3582 81.4324 38.4554 81.8584 39.8086 81.8584C40.4852 81.8584 41.0978 81.7587 41.6464 81.5593C42.2133 81.3418 42.6979 81.0154 43.1002 80.5804C43.5025 80.1453 43.8133 79.5924 44.0328 78.9216C44.2522 78.2327 44.3619 77.4169 44.3619 76.4742V64.9445H47.0226V76.7734C47.0226 77.8248 46.8763 78.8038 46.5838 79.7102C46.3095 80.6166 45.8706 81.4052 45.2671 82.076C44.682 82.7286 43.9322 83.2453 43.0179 83.626C42.1218 84.0067 41.0521 84.197 39.8086 84.197Z" fill="#EFFBFF"/>
<path d="M63.2741 83.7891C62.8718 83.1184 62.4055 82.366 61.8752 81.5321C61.3632 80.6982 60.8054 79.8371 60.202 78.9488C59.5985 78.0424 58.9676 77.1269 58.3093 76.2023C57.6693 75.2778 57.0293 74.3895 56.3892 73.5374C55.7492 72.6672 55.1275 71.8515 54.524 71.0901C53.9206 70.3287 53.3628 69.6579 52.8508 69.0778V83.7891H50.245V64.9445H52.3571C53.2165 65.8509 54.1309 66.9114 55.1 68.126C56.0875 69.3225 57.0567 70.5643 58.0076 71.8515C58.9768 73.1205 59.882 74.3713 60.7232 75.6041C61.5826 76.8368 62.3049 77.9336 62.8901 78.8944V64.9445H65.4959V83.7891H63.2741Z" fill="#EFFBFF"/>
<path d="M84.4373 74.3532C84.4373 75.9848 84.1812 77.4079 83.6692 78.6225C83.1572 79.819 82.4349 80.816 81.5023 81.6137C80.5697 82.3932 79.4542 82.9824 78.1558 83.3812C76.8575 83.7619 75.4312 83.9523 73.8768 83.9523C73.1088 83.9523 72.2584 83.916 71.3258 83.8435C70.4115 83.7891 69.5795 83.6713 68.8297 83.49V65.2164C69.5795 65.0351 70.4115 64.9173 71.3258 64.8629C72.2584 64.7904 73.1088 64.7541 73.8768 64.7541C75.4312 64.7541 76.8575 64.9535 78.1558 65.3524C79.4542 65.7331 80.5697 66.3222 81.5023 67.1199C82.4349 67.8994 83.1572 68.8965 83.6692 70.1111C84.1812 71.3076 84.4373 72.7216 84.4373 74.3532ZM74.0962 81.6409C76.6198 81.6409 78.5033 81.0064 79.7468 79.7374C80.9903 78.4503 81.612 76.6555 81.612 74.3532C81.612 72.0509 80.9903 70.2652 79.7468 68.9962C78.5033 67.7091 76.6198 67.0655 74.0962 67.0655C73.3465 67.0655 72.7613 67.0746 72.3407 67.0927C71.9384 67.1108 71.655 67.129 71.4904 67.1471V81.5593C71.655 81.5774 71.9384 81.5956 72.3407 81.6137C72.7613 81.6318 73.3465 81.6409 74.0962 81.6409Z" fill="#EFFBFF"/>
<path d="M99.2037 83.7891C98.8928 82.9733 98.6002 82.1757 98.3259 81.3961C98.0516 80.5985 97.7682 79.7918 97.4756 78.976H88.8627L87.1346 83.7891H84.3642C85.0956 81.795 85.7814 79.9549 86.4214 78.269C87.0615 76.5649 87.6832 74.9514 88.2867 73.4286C88.9084 71.9058 89.521 70.4556 90.1244 69.0778C90.7279 67.6819 91.3588 66.3041 92.0171 64.9445H94.4583C95.1167 66.3041 95.7475 67.6819 96.351 69.0778C96.9545 70.4556 97.5579 71.9058 98.1614 73.4286C98.7831 74.9514 99.414 76.5649 100.054 78.269C100.694 79.9549 101.38 81.795 102.111 83.7891H99.2037ZM96.7076 76.8006C96.1224 75.2234 95.5372 73.7006 94.9521 72.2322C94.3852 70.7456 93.7909 69.3225 93.1691 67.9629C92.5291 69.3225 91.9165 70.7456 91.3313 72.2322C90.7645 73.7006 90.1976 75.2234 89.6307 76.8006H96.7076Z" fill="#EFFBFF"/>
<path d="M112.619 75.9032C112.912 76.2658 113.278 76.7462 113.716 77.3444C114.174 77.9245 114.64 78.5772 115.115 79.3023C115.591 80.0093 116.057 80.7526 116.514 81.5321C116.99 82.3116 117.392 83.064 117.721 83.7891H114.814C114.448 83.1002 114.046 82.4023 113.607 81.6953C113.186 80.9883 112.756 80.3175 112.317 79.683C111.879 79.0304 111.44 78.4231 111.001 77.8611C110.58 77.2991 110.196 76.8096 109.849 76.3927C109.611 76.4108 109.364 76.4199 109.108 76.4199C108.87 76.4199 108.624 76.4199 108.368 76.4199H105.981V83.7891H103.321V65.2164C104.07 65.0351 104.902 64.9173 105.817 64.8629C106.749 64.7904 107.6 64.7541 108.368 64.7541C111.037 64.7541 113.067 65.2527 114.457 66.2497C115.865 67.2468 116.569 68.7333 116.569 70.7094C116.569 71.9602 116.231 73.0298 115.554 73.9181C114.896 74.8064 113.918 75.4681 112.619 75.9032ZM108.587 67.0655C107.453 67.0655 106.585 67.0927 105.981 67.1471V74.2444H107.874C108.788 74.2444 109.611 74.1991 110.343 74.1085C111.074 74.0178 111.687 73.8456 112.18 73.5918C112.692 73.338 113.086 72.9845 113.36 72.5313C113.634 72.0599 113.771 71.4436 113.771 70.6822C113.771 69.9751 113.634 69.386 113.36 68.9146C113.086 68.4433 112.711 68.0716 112.235 67.7997C111.778 67.5278 111.229 67.3374 110.589 67.2287C109.968 67.1199 109.3 67.0655 108.587 67.0655Z" fill="#EFFBFF"/>
<path d="M119.2 64.9445H121.86V83.7891H119.2V64.9445Z" fill="#EFFBFF"/>
<path d="M16.2736 57.3305C16.2736 58.2369 16.1731 59.0799 15.9719 59.8594C15.789 60.6389 15.4507 61.3278 14.957 61.9261C14.4816 62.5062 13.8324 62.9685 13.0095 63.3129C12.2049 63.6392 11.19 63.8024 9.96479 63.8024C9.34305 63.8024 8.76702 63.748 8.23671 63.6392C7.72469 63.5486 7.25838 63.4307 6.83779 63.2857C6.4172 63.1226 6.05147 62.9594 5.7406 62.7962C5.42973 62.615 5.18287 62.4427 5 62.2796L6.04233 60.1857C6.42635 60.4577 6.92008 60.7477 7.52354 61.0559C8.14528 61.346 8.91331 61.491 9.82764 61.491C11.1443 61.491 12.1043 61.1647 12.7078 60.512C13.3112 59.8413 13.6129 58.6992 13.6129 57.0857V44.5498H16.2736V57.3305Z" stroke="#EFFBFF" stroke-width="3"/>
<path d="M26.5598 63.8024C25.3163 63.8024 24.2374 63.612 23.3231 63.2313C22.4088 62.8506 21.659 62.334 21.0738 61.6813C20.4887 61.0106 20.0498 60.222 19.7572 59.3156C19.4829 58.4091 19.3458 57.4302 19.3458 56.3787V44.5498H22.0065V56.0796C22.0065 57.965 22.427 59.3337 23.2682 60.1857C24.1094 61.0378 25.2066 61.4638 26.5598 61.4638C27.2364 61.4638 27.849 61.3641 28.3976 61.1647C28.9645 60.9471 29.4491 60.6208 29.8514 60.1857C30.2537 59.7506 30.5645 59.1977 30.784 58.527C31.0034 57.8381 31.1131 57.0223 31.1131 56.0796V44.5498H33.7738V56.3787C33.7738 57.4302 33.6275 58.4091 33.335 59.3156C33.0607 60.222 32.6218 61.0106 32.0183 61.6813C31.4332 62.334 30.6834 62.8506 29.7691 63.2313C28.873 63.612 27.8033 63.8024 26.5598 63.8024Z" stroke="#EFFBFF" stroke-width="3"/>
<path d="M50.0253 63.3945C49.623 62.7237 49.1567 61.9714 48.6264 61.1375C48.1144 60.3036 47.5566 59.4425 46.9532 58.5542C46.3497 57.6477 45.7188 56.7322 45.0605 55.8077C44.4205 54.8831 43.7805 53.9948 43.1405 53.1428C42.5004 52.2726 41.8787 51.4568 41.2752 50.6954C40.6718 49.934 40.114 49.2633 39.602 48.6831V63.3945H36.9962V44.5498H39.1083C39.9677 45.4563 40.8821 46.5168 41.8513 47.7314C42.8387 48.9279 43.8079 50.1697 44.7588 51.4568C45.728 52.7258 46.6332 53.9767 47.4744 55.2094C48.3338 56.4422 49.0561 57.539 49.6413 58.4998V44.5498H52.2471V63.3945H50.0253Z" stroke="#EFFBFF" stroke-width="3"/>
<path d="M55.5809 44.5498H58.2416V63.3945H55.5809V44.5498Z" stroke="#EFFBFF" stroke-width="3"/>
<path d="M60.8078 53.9586C60.8078 52.3451 61.0455 50.922 61.521 49.6893C62.0147 48.4565 62.673 47.4323 63.4959 46.6165C64.3371 45.7826 65.3063 45.1571 66.4035 44.7402C67.5189 44.3232 68.6984 44.1147 69.9419 44.1147C71.1671 44.1147 72.3192 44.3232 73.3981 44.7402C74.4953 45.1571 75.4553 45.7826 76.2782 46.6165C77.1011 47.4323 77.7503 48.4565 78.2257 49.6893C78.7194 50.922 78.9663 52.3451 78.9663 53.9586C78.9663 55.572 78.7194 56.9951 78.2257 58.2278C77.7503 59.4606 77.1011 60.4939 76.2782 61.3278C75.4553 62.1436 74.4953 62.76 73.3981 63.1769C72.3192 63.5939 71.1671 63.8024 69.9419 63.8024C68.6984 63.8024 67.5189 63.5939 66.4035 63.1769C65.3063 62.76 64.3371 62.1436 63.4959 61.3278C62.673 60.4939 62.0147 59.4606 61.521 58.2278C61.0455 56.9951 60.8078 55.572 60.8078 53.9586ZM63.6056 53.9586C63.6056 55.1007 63.7519 56.1431 64.0445 57.0857C64.3371 58.0103 64.7485 58.7989 65.2789 59.4515C65.8274 60.1041 66.4858 60.6117 67.2538 60.9743C68.0401 61.3188 68.9179 61.491 69.8871 61.491C70.8562 61.491 71.7248 61.3188 72.4929 60.9743C73.2609 60.6117 73.9101 60.1041 74.4404 59.4515C74.989 58.7989 75.4096 58.0103 75.7022 57.0857C75.9947 56.1431 76.141 55.1007 76.141 53.9586C76.141 52.8165 75.9947 51.7831 75.7022 50.8586C75.4096 49.9159 74.989 49.1182 74.4404 48.4656C73.9101 47.813 73.2609 47.3144 72.4929 46.97C71.7248 46.6074 70.8562 46.4261 69.8871 46.4261C68.9179 46.4261 68.0401 46.6074 67.2538 46.97C66.4858 47.3144 65.8274 47.813 65.2789 48.4656C64.7485 49.1182 64.3371 49.9159 64.0445 50.8586C63.7519 51.7831 63.6056 52.8165 63.6056 53.9586Z" stroke="#EFFBFF" stroke-width="3"/>
<path d="M90.8522 55.5086C91.1448 55.8711 91.5105 56.3515 91.9494 56.9498C92.4065 57.5299 92.8728 58.1825 93.3483 58.9077C93.8237 59.6147 94.2901 60.3579 94.7472 61.1375C95.2227 61.917 95.625 62.6693 95.9541 63.3945H93.0466C92.6808 62.7056 92.2785 62.0076 91.8397 61.3006C91.4191 60.5936 90.9893 59.9229 90.5505 59.2884C90.1116 58.6357 89.6727 58.0284 89.2338 57.4664C88.8132 56.9045 88.4292 56.415 88.0818 55.998C87.8441 56.0162 87.5972 56.0252 87.3412 56.0252C87.1034 56.0252 86.8566 56.0252 86.6006 56.0252H84.2142V63.3945H81.5535V44.8218C82.3032 44.6405 83.1353 44.5226 84.0496 44.4683C84.9822 44.3957 85.8325 44.3595 86.6006 44.3595C89.2704 44.3595 91.3002 44.858 92.69 45.8551C94.098 46.8522 94.8021 48.3387 94.8021 50.3147C94.8021 51.5656 94.4638 52.6352 93.7872 53.5235C93.1289 54.4118 92.1505 55.0735 90.8522 55.5086ZM86.82 46.6709C85.6862 46.6709 84.8176 46.6981 84.2142 46.7525V53.8498H86.1068C87.0212 53.8498 87.8441 53.8045 88.5755 53.7138C89.307 53.6232 89.9196 53.451 90.4133 53.1972C90.9253 52.9434 91.3185 52.5899 91.5928 52.1366C91.8671 51.6653 92.0042 51.0489 92.0042 50.2875C92.0042 49.5805 91.8671 48.9913 91.5928 48.52C91.3185 48.0486 90.9436 47.677 90.4682 47.4051C90.011 47.1332 89.4624 46.9428 88.8224 46.834C88.2006 46.7253 87.5332 46.6709 86.82 46.6709Z" stroke="#EFFBFF" stroke-width="3"/>
<path d="M25.2676 84.197C23.9327 84.197 22.7166 83.9795 21.6194 83.5444C20.5223 83.1093 19.5805 82.4748 18.7942 81.6409C18.0079 80.807 17.3953 79.7827 16.9564 78.5681C16.5358 77.3353 16.3255 75.9304 16.3255 74.3532C16.3255 72.776 16.5632 71.3801 17.0387 70.1655C17.5324 68.9328 18.1907 67.8994 19.0136 67.0655C19.8365 66.2316 20.7965 65.5971 21.8937 65.162C22.9909 64.7269 24.1613 64.5094 25.4048 64.5094C26.1911 64.5094 26.8951 64.5638 27.5168 64.6725C28.1569 64.7813 28.7055 64.9082 29.1626 65.0532C29.6381 65.1983 30.0221 65.3433 30.3147 65.4883C30.6073 65.6334 30.8084 65.7421 30.9181 65.8146L30.1501 67.9901C29.9855 67.8813 29.7478 67.7635 29.4369 67.6366C29.1261 67.5097 28.7695 67.3828 28.3672 67.2559C27.9831 67.129 27.5534 67.0293 27.078 66.9567C26.6208 66.8661 26.1545 66.8208 25.679 66.8208C24.6733 66.8208 23.7681 66.993 22.9635 67.3374C22.1589 67.6819 21.4732 68.1804 20.9063 68.833C20.3394 69.4857 19.9005 70.2833 19.5896 71.226C19.2971 72.1506 19.1508 73.193 19.1508 74.3532C19.1508 75.4772 19.2788 76.5014 19.5348 77.426C19.8091 78.3505 20.2114 79.1482 20.7417 79.819C21.272 80.4716 21.9303 80.9792 22.7166 81.3418C23.5212 81.7043 24.4539 81.8856 25.5145 81.8856C26.7397 81.8856 27.7546 81.7587 28.5592 81.5049C29.3638 81.2511 29.9672 81.0245 30.3695 80.8251L31.0553 83.0005C30.9273 83.0912 30.6987 83.209 30.3695 83.354C30.0404 83.4809 29.6289 83.6078 29.1352 83.7347C28.6415 83.8616 28.0654 83.9704 27.4071 84.061C26.7488 84.1517 26.0356 84.197 25.2676 84.197Z" stroke="#EFFBFF" stroke-width="3"/>
<path d="M39.8086 84.197C38.5651 84.197 37.4862 84.0067 36.5719 83.626C35.6576 83.2453 34.9078 82.7286 34.3226 82.076C33.7375 81.4052 33.2986 80.6166 33.006 79.7102C32.7317 78.8038 32.5946 77.8248 32.5946 76.7734V64.9445H35.2553V76.4742C35.2553 78.3596 35.6758 79.7283 36.517 80.5804C37.3582 81.4324 38.4554 81.8584 39.8086 81.8584C40.4852 81.8584 41.0978 81.7587 41.6464 81.5593C42.2133 81.3418 42.6979 81.0154 43.1002 80.5804C43.5025 80.1453 43.8133 79.5924 44.0328 78.9216C44.2522 78.2327 44.3619 77.4169 44.3619 76.4742V64.9445H47.0226V76.7734C47.0226 77.8248 46.8763 78.8038 46.5838 79.7102C46.3095 80.6166 45.8706 81.4052 45.2671 82.076C44.682 82.7286 43.9322 83.2453 43.0179 83.626C42.1218 84.0067 41.0521 84.197 39.8086 84.197Z" stroke="#EFFBFF" stroke-width="3"/>
<path d="M63.2741 83.7891C62.8718 83.1184 62.4055 82.366 61.8752 81.5321C61.3632 80.6982 60.8054 79.8371 60.202 78.9488C59.5985 78.0424 58.9676 77.1269 58.3093 76.2023C57.6693 75.2778 57.0293 74.3895 56.3892 73.5374C55.7492 72.6672 55.1275 71.8515 54.524 71.0901C53.9206 70.3287 53.3628 69.6579 52.8508 69.0778V83.7891H50.245V64.9445H52.3571C53.2165 65.8509 54.1309 66.9114 55.1 68.126C56.0875 69.3225 57.0567 70.5643 58.0076 71.8515C58.9768 73.1205 59.882 74.3713 60.7232 75.6041C61.5826 76.8368 62.3049 77.9336 62.8901 78.8944V64.9445H65.4959V83.7891H63.2741Z" stroke="#EFFBFF" stroke-width="3"/>
<path d="M84.4373 74.3532C84.4373 75.9848 84.1812 77.4079 83.6692 78.6225C83.1572 79.819 82.4349 80.816 81.5023 81.6137C80.5697 82.3932 79.4542 82.9824 78.1558 83.3812C76.8575 83.7619 75.4312 83.9523 73.8768 83.9523C73.1088 83.9523 72.2584 83.916 71.3258 83.8435C70.4115 83.7891 69.5795 83.6713 68.8297 83.49V65.2164C69.5795 65.0351 70.4115 64.9173 71.3258 64.8629C72.2584 64.7904 73.1088 64.7541 73.8768 64.7541C75.4312 64.7541 76.8575 64.9535 78.1558 65.3524C79.4542 65.7331 80.5697 66.3222 81.5023 67.1199C82.4349 67.8994 83.1572 68.8965 83.6692 70.1111C84.1812 71.3076 84.4373 72.7216 84.4373 74.3532ZM74.0962 81.6409C76.6198 81.6409 78.5033 81.0064 79.7468 79.7374C80.9903 78.4503 81.612 76.6555 81.612 74.3532C81.612 72.0509 80.9903 70.2652 79.7468 68.9962C78.5033 67.7091 76.6198 67.0655 74.0962 67.0655C73.3465 67.0655 72.7613 67.0746 72.3407 67.0927C71.9384 67.1108 71.655 67.129 71.4904 67.1471V81.5593C71.655 81.5774 71.9384 81.5956 72.3407 81.6137C72.7613 81.6318 73.3465 81.6409 74.0962 81.6409Z" stroke="#EFFBFF" stroke-width="3"/>
<path d="M99.2037 83.7891C98.8928 82.9733 98.6002 82.1757 98.3259 81.3961C98.0516 80.5985 97.7682 79.7918 97.4756 78.976H88.8627L87.1346 83.7891H84.3642C85.0956 81.795 85.7814 79.9549 86.4214 78.269C87.0615 76.5649 87.6832 74.9514 88.2867 73.4286C88.9084 71.9058 89.521 70.4556 90.1244 69.0778C90.7279 67.6819 91.3588 66.3041 92.0171 64.9445H94.4583C95.1167 66.3041 95.7475 67.6819 96.351 69.0778C96.9545 70.4556 97.5579 71.9058 98.1614 73.4286C98.7831 74.9514 99.414 76.5649 100.054 78.269C100.694 79.9549 101.38 81.795 102.111 83.7891H99.2037ZM96.7076 76.8006C96.1224 75.2234 95.5372 73.7006 94.9521 72.2322C94.3852 70.7456 93.7909 69.3225 93.1691 67.9629C92.5291 69.3225 91.9165 70.7456 91.3313 72.2322C90.7645 73.7006 90.1976 75.2234 89.6307 76.8006H96.7076Z" stroke="#EFFBFF" stroke-width="3"/>
<path d="M112.619 75.9032C112.912 76.2658 113.278 76.7462 113.716 77.3444C114.174 77.9245 114.64 78.5772 115.115 79.3023C115.591 80.0093 116.057 80.7526 116.514 81.5321C116.99 82.3116 117.392 83.064 117.721 83.7891H114.814C114.448 83.1002 114.046 82.4023 113.607 81.6953C113.186 80.9883 112.756 80.3175 112.317 79.683C111.879 79.0304 111.44 78.4231 111.001 77.8611C110.58 77.2991 110.196 76.8096 109.849 76.3927C109.611 76.4108 109.364 76.4199 109.108 76.4199C108.87 76.4199 108.624 76.4199 108.368 76.4199H105.981V83.7891H103.321V65.2164C104.07 65.0351 104.902 64.9173 105.817 64.8629C106.749 64.7904 107.6 64.7541 108.368 64.7541C111.037 64.7541 113.067 65.2527 114.457 66.2497C115.865 67.2468 116.569 68.7333 116.569 70.7094C116.569 71.9602 116.231 73.0298 115.554 73.9181C114.896 74.8064 113.918 75.4681 112.619 75.9032ZM108.587 67.0655C107.453 67.0655 106.585 67.0927 105.981 67.1471V74.2444H107.874C108.788 74.2444 109.611 74.1991 110.343 74.1085C111.074 74.0178 111.687 73.8456 112.18 73.5918C112.692 73.338 113.086 72.9845 113.36 72.5313C113.634 72.0599 113.771 71.4436 113.771 70.6822C113.771 69.9751 113.634 69.386 113.36 68.9146C113.086 68.4433 112.711 68.0716 112.235 67.7997C111.778 67.5278 111.229 67.3374 110.589 67.2287C109.968 67.1199 109.3 67.0655 108.587 67.0655Z" stroke="#EFFBFF" stroke-width="3"/>
<path d="M119.2 64.9445H121.86V83.7891H119.2V64.9445Z" stroke="#EFFBFF" stroke-width="3"/>
<defs>
<clipPath id="clip0_120_114">
<rect width="19.5009" height="19.3324" fill="white" transform="translate(102.499 43)"/>
</clipPath>
</defs>
</svg>
